<?xml version="1.0" encoding="UTF-8" standalone="no"?>
<!DOCTYPE svg PUBLIC "-//W3C//DTD SVG 1.1//EN" "http://www.w3.org/Graphics/SVG/1.1/DTD/svg11.dtd">
<svg width="370px" height="49px" version="1.1" xmlns="http://www.w3.org/2000/svg" xmlns:xlink="http://www.w3.org/1999/xlink" xml:space="preserve" style="fill-rule:evenodd;clip-rule:evenodd;stroke-linejoin:round;stroke-miterlimit:1.41421;">
    <g>
        <g>
            <g>
                <path d="M12.6835,19.5905C11.6075,19.5905 10.7756,18.6928 10.7756,17.6388C10.7756,16.5816 11.6075,15.684 12.6835,15.684C13.7657,15.684 14.5914,16.5816 14.5914,17.6388C14.5914,18.6928 13.7657,19.5905 12.6835,19.5905Z" style="fill:rgb(127,203,40);fill-rule:nonzero;"/>
            </g>
            <g>
                <path d="M20.14,13.9731L19.6051,17.0664L13.969,11.8744L12.8711,10.9142L3.99778,17.0946L4.53574,14.0044L13.4529,7.58315L20.14,13.9731Z" style="fill:rgb(105,94,81);fill-rule:nonzero;"/>
            </g>
            <g>
                <path d="M1.71141,30.3123L2.25251,27.2221L11.1634,20.8009L17.8567,27.194L17.3187,30.281L11.6795,25.0921L10.5879,24.1319L1.71141,30.3123Z" style="fill:rgb(127,203,40);fill-rule:nonzero;"/>
            </g>
            <g>
                <path d="M0.907586,34.8944L9.81847,28.4763L16.5118,34.8663L15.9738,37.9565L10.3345,32.7676L9.24297,31.8074L0.369618,37.9877" style="fill:rgb(105,94,81);fill-rule:nonzero;"/>
            </g>
            <g>
                <path d="M60.7785,37.8532L64.8789,7.4987L56.0962,7.4987L50.4663,19.0275C49.159,21.7768 47.5388,25.333 46.3659,28.7109L46.1876,28.7109C46.1407,25.333 45.8279,21.8643 45.6465,19.0275L44.702,7.4987L36.0069,7.4987L28.3971,37.8532L34.3429,37.8532L37.3581,25.333C38.1244,22.0457 39.0251,17.498 39.8821,13.4883L39.9728,13.4883C40.1511,17.5418 40.3763,21.7298 40.6484,25.064L41.7275,37.3591L46.7725,37.3591L52.9873,24.9295C54.6544,21.5953 56.5466,17.4073 58.2137,13.4883L58.3482,13.4883C57.4912,17.8577 56.8156,22.0457 56.3214,25.333L54.473,37.8532L60.7785,37.8532Z" style="fill:rgb(105,94,81);fill-rule:nonzero;"/>
            </g>
            <g>
                <path d="M83.7516,7.00139C79.3821,7.00139 75.5069,8.62468 72.6701,11.327C69.1138,14.7488 67.0871,20.2004 67.0871,25.6927C67.0871,32.7644 71.5003,38.3506 79.3821,38.3506C83.9299,38.3506 87.7582,36.7273 90.595,33.9811C94.0637,30.5594 95.9997,25.1985 95.9997,19.6593C95.9997,12.4061 91.7679,7.00139 83.7516,7.00139ZM82.9853,12.4061C87.7582,12.4061 89.1094,16.0562 89.1094,19.8376C89.1094,23.3531 87.8051,28.3512 85.4155,30.7377C84.0206,32.0889 82.219,32.9459 80.3267,32.9459C75.9135,32.9459 73.9774,29.7462 73.9774,25.4675C73.9774,21.8205 75.3286,17.0914 77.7589,14.705C79.1569,13.2631 80.9585,12.4061 82.9853,12.4061Z" style="fill:rgb(105,94,81);fill-rule:nonzero;"/>
            </g>
            <g>
                <path d="M103.297,7.4987L97.5323,37.8532L104.016,37.8532L106.449,25.1078L117.44,25.1078L115.051,37.8532L121.538,37.8532L127.302,7.4987L120.818,7.4987L118.566,19.3434L107.532,19.3434L109.784,7.4987L103.297,7.4987Z" style="fill:rgb(105,94,81);fill-rule:nonzero;"/>
            </g>
            <g>
                <path d="M144.642,29.9714L145.274,37.8532L152.074,37.8532L148.514,7.4987L140.182,7.4987L125.41,37.8532L132.3,37.8532L135.903,29.9714L144.642,29.9714ZM137.795,25.0171L140.814,18.4864C141.624,16.7317 142.481,14.3891 143.247,12.5437L143.335,12.5437C143.472,14.3891 143.651,16.8224 143.785,18.4864L144.373,25.0171L137.795,25.0171Z" style="fill:rgb(105,94,81);fill-rule:nonzero;"/>
            </g>
            <g>
                <path d="M166.936,17.9422C166.108,18.2112 164.816,18.5458 163.458,18.5458C161.976,18.5458 160.765,18.1642 159.871,17.3667C159.011,16.6004 158.514,15.4212 158.514,14.0482C158.514,12.0402 159.345,10.3011 160.715,9.13763C161.929,8.1305 163.587,7.57377 165.454,7.57377C166.855,7.57377 167.894,7.84275 168.31,8.05231L167.621,9.99775C167.127,9.77568 166.298,9.55049 165.341,9.55049C164.272,9.55049 163.318,9.85388 162.598,10.4137C161.673,11.1456 161.05,12.4217 161.05,13.8886C161.05,15.6902 162.12,16.6004 163.812,16.6004C164.337,16.6004 164.719,16.5222 164.975,16.4096L165.404,14.1451L163.746,14.1451L164.097,12.3091L168.006,12.3091L166.936,17.9422Z" style="fill:url(#tag1);"/>
            </g>
            <g>
                <path d="M173.189,12.134C172.119,12.134 171.515,13.0129 171.356,13.7448C173.142,13.7604 174.033,13.5071 174.033,12.8033C174.033,12.4061 173.717,12.134 173.189,12.134ZM175.216,17.9891C174.305,18.452 173.173,18.5959 172.313,18.5959C170.08,18.5959 168.932,17.3354 168.932,15.3086C168.932,12.9316 170.655,10.4607 173.477,10.4607C175.056,10.4607 176.188,11.3364 176.188,12.7877C176.188,14.7832 174.258,15.4994 171.134,15.4212C171.134,15.6433 171.212,15.9936 171.372,16.2188C171.675,16.616 172.2,16.8256 172.87,16.8256C173.717,16.8256 174.434,16.6316 175.056,16.3283L175.216,17.9891Z" style="fill:url(#tag2);"/>
            </g>
            <g>
                <path d="M176.97,16.3783C177.417,16.6004 178.262,16.9194 179.013,16.9194C179.666,16.9194 180.001,16.6004 180.001,16.2188C180.001,15.8341 179.748,15.5651 179.028,15.2148C178.118,14.7675 177.371,14.1138 177.371,13.1411C177.371,11.5272 178.791,10.4607 180.799,10.4607C181.709,10.4607 182.425,10.6358 182.81,10.8579L182.265,12.4843C181.931,12.3279 181.39,12.134 180.705,12.134C180.095,12.134 179.682,12.4061 179.682,12.8221C179.682,13.1411 180.001,13.4101 180.639,13.7135C181.484,14.1451 182.378,14.7675 182.378,15.8497C182.378,17.6388 180.864,18.5959 178.806,18.5959C177.815,18.5959 176.876,18.3394 176.413,17.9891L176.97,16.3783Z" style="fill:url(#tag3);"/>
            </g>
            <g>
                <path d="M187.736,8.44953L187.323,10.6358L188.981,10.6358L188.646,12.3748L186.988,12.3748L186.463,15.0209C186.397,15.3399 186.335,15.7403 186.335,16.0092C186.335,16.3939 186.494,16.6661 186.988,16.6661C187.195,16.6661 187.417,16.6661 187.626,16.6316L187.354,18.4363C187.066,18.5458 186.494,18.6115 185.997,18.6115C184.627,18.6115 183.973,17.9078 183.973,16.935C183.973,16.5065 184.02,16.0749 184.133,15.4838L184.739,12.3748L183.751,12.3748L184.07,10.6358L185.074,10.6358L185.393,8.99375L187.736,8.44953Z" style="fill:url(#tag4);"/>
            </g>
            <g>
                <path d="M190.673,8.54649C190.688,7.76456 191.295,7.2391 191.996,7.2391C192.668,7.2391 193.147,7.68324 193.147,8.37133C193.147,9.18454 192.524,9.66308 191.789,9.66308C191.151,9.66308 190.673,9.23146 190.673,8.54649ZM188.871,18.4363L190.354,10.6358L192.649,10.6358L191.167,18.4363L188.871,18.4363Z" style="fill:url(#tag5);"/>
            </g>
            <g>
                <path d="M195.746,15.3399C195.746,16.2501 196.19,16.8568 196.988,16.8568C198.248,16.8568 198.952,15.0209 198.952,13.6822C198.952,12.9628 198.648,12.1997 197.723,12.1997C196.4,12.1997 195.73,14.1295 195.746,15.3399ZM201.329,13.6666C201.329,16.5222 199.38,18.6115 196.672,18.6115C194.692,18.6115 193.369,17.3197 193.369,15.3899C193.369,12.6782 195.252,10.4607 198.026,10.4607C200.115,10.4607 201.329,11.8963 201.329,13.6666Z" style="fill:url(#tag6);"/>
            </g>
            <g>
                <path d="M202.014,18.4363L203.002,13.1724C203.196,12.184 203.321,11.3208 203.418,10.6358L205.458,10.6358L205.298,11.9276L205.332,11.9276C206.064,10.9079 207.037,10.4607 208.075,10.4607C209.352,10.4607 210.068,11.2426 210.068,12.5813C210.068,12.9316 210.005,13.5227 209.943,13.9043L209.079,18.4363L206.784,18.4363L207.597,14.1138C207.644,13.8417 207.675,13.5227 207.675,13.2349C207.675,12.6938 207.484,12.3091 206.912,12.3091C206.161,12.3091 205.282,13.2506 204.963,14.974L204.313,18.4363L202.014,18.4363Z" style="fill:url(#tag7);"/>
            </g>
            <g>
                <path d="M219.782,12.4687C219.607,12.3279 219.257,12.1997 218.875,12.1997C217.502,12.1997 216.53,13.7948 216.53,15.293C216.53,16.2344 216.943,16.7599 217.615,16.7599C218.269,16.7599 219.082,16.0593 219.385,14.5736L219.782,12.4687ZM223.085,7.11086L221.506,15.4056C221.315,16.4096 221.171,17.5105 221.14,18.4363L219.035,18.4363L219.144,17.1759L219.113,17.1759C218.428,18.2112 217.471,18.6115 216.561,18.6115C215.238,18.6115 214.137,17.5575 214.137,15.6589C214.137,12.9472 216.098,10.4607 219.051,10.4607C219.37,10.4607 219.782,10.5076 220.117,10.6358L220.79,7.11086L223.085,7.11086Z" style="fill:url(#tag8);"/>
            </g>
            <g>
                <path d="M227.361,12.134C226.291,12.134 225.684,13.0129 225.525,13.7448C227.311,13.7604 228.205,13.5071 228.205,12.8033C228.205,12.4061 227.886,12.134 227.361,12.134ZM229.385,17.9891C228.478,18.452 227.345,18.5959 226.482,18.5959C224.249,18.5959 223.101,17.3354 223.101,15.3086C223.101,12.9316 224.824,10.4607 227.646,10.4607C229.225,10.4607 230.36,11.3364 230.36,12.7877C230.36,14.7832 228.427,15.4994 225.303,15.4212C225.303,15.6433 225.381,15.9936 225.541,16.2188C225.844,16.616 226.373,16.8256 227.042,16.8256C227.886,16.8256 228.606,16.6316 229.225,16.3283L229.385,17.9891Z" style="fill:url(#tag9);"/>
            </g>
            <g>
                <path d="M233.788,18.4363L235.959,7.11086L238.255,7.11086L236.084,18.4363L233.788,18.4363Z" style="fill:url(#tag10);"/>
            </g>
            <g>
                <path d="M243.791,12.2622C243.616,12.2309 243.391,12.1997 243.168,12.1997C241.686,12.1997 240.601,14.0169 240.601,15.4681C240.601,16.2344 240.904,16.7599 241.542,16.7599C242.227,16.7599 243.071,15.978 243.422,14.0638L243.791,12.2622ZM243.118,18.4363C243.137,17.9734 243.184,17.4449 243.231,16.8881L243.184,16.8881C242.465,18.1799 241.476,18.6115 240.569,18.6115C239.165,18.6115 238.208,17.5262 238.208,15.8998C238.208,13.2662 239.947,10.4607 243.791,10.4607C244.717,10.4607 245.721,10.6358 246.374,10.8422L245.542,14.927C245.352,15.931 245.208,17.4605 245.242,18.4363L243.118,18.4363Z" style="fill:url(#tag11);"/>
            </g>
            <g>
                <path d="M249.79,18.4363L250.759,13.1724C250.938,12.184 251.063,11.3208 251.16,10.6358L253.136,10.6358L252.993,11.8963L253.027,11.8963C253.728,10.8923 254.685,10.4607 255.689,10.4607C256.934,10.4607 257.475,11.2426 257.54,11.9276C258.241,10.9236 259.214,10.4607 260.218,10.4607C261.431,10.4607 262.132,11.2269 262.132,12.55C262.132,12.8846 262.069,13.4914 261.991,13.8886L261.143,18.4363L258.926,18.4363L259.708,14.1764C259.774,13.8574 259.82,13.5227 259.82,13.2193C259.82,12.6782 259.58,12.2935 259.039,12.2935C258.272,12.2935 257.525,13.3319 257.221,14.8958L256.568,18.4363L254.35,18.4363L255.148,14.1451C255.21,13.8261 255.26,13.5227 255.26,13.2506C255.26,12.7251 255.082,12.2935 254.525,12.2935C253.743,12.2935 252.93,13.3945 252.642,14.927L252.004,18.4363L249.79,18.4363Z" style="fill:url(#tag12);"/>
            </g>
            <g>
                <path d="M265.691,15.3399C265.691,16.2501 266.138,16.8568 266.936,16.8568C268.196,16.8568 268.897,15.0209 268.897,13.6822C268.897,12.9628 268.594,12.1997 267.668,12.1997C266.345,12.1997 265.676,14.1295 265.691,15.3399ZM271.274,13.6666C271.274,16.5222 269.329,18.6115 266.617,18.6115C264.637,18.6115 263.314,17.3197 263.314,15.3899C263.314,12.6782 265.197,10.4607 267.971,10.4607C270.061,10.4607 271.274,11.8963 271.274,13.6666Z" style="fill:url(#tag13);"/>
            </g>
            <g>
                <path d="M274.783,15.1491C274.752,15.4056 274.687,15.6746 274.705,16.0092C274.721,16.5691 275.056,16.8725 275.581,16.8725C276.904,16.8725 277.861,15.0209 277.861,13.6509C277.861,12.9003 277.542,12.3091 276.842,12.3091C276.013,12.3091 275.199,13.1568 274.927,14.5111L274.783,15.1491ZM276.394,7.11086L275.468,11.5616L275.5,11.5616C276.075,10.8735 276.951,10.4607 277.911,10.4607C279.538,10.4607 280.27,11.7837 280.27,13.1724C280.27,15.709 278.612,18.6115 275.102,18.6115C273.251,18.6115 272.325,17.8139 272.325,16.4252C272.325,15.9467 272.406,15.4681 272.503,15.0052L274.083,7.11086L276.394,7.11086Z" style="fill:url(#tag14);"/>
            </g>
            <g>
                <path d="M282.697,8.54649C282.712,7.76456 283.316,7.2391 284.02,7.2391C284.689,7.2391 285.168,7.68324 285.168,8.37133C285.168,9.18454 284.545,9.66308 283.813,9.66308C283.175,9.66308 282.697,9.23146 282.697,8.54649ZM280.892,18.4363L282.378,10.6358L284.673,10.6358L283.191,18.4363L280.892,18.4363Z" style="fill:url(#tag15);"/>
            </g>
            <g>
                <path d="M285.121,18.4363L287.288,7.11086L289.587,7.11086L287.416,18.4363L285.121,18.4363Z" style="fill:url(#tag16);"/>
            </g>
            <g>
                <path d="M291.151,8.54649C291.166,7.76456 291.77,7.2391 292.474,7.2391C293.143,7.2391 293.622,7.68324 293.622,8.37133C293.622,9.18454 292.999,9.66308 292.264,9.66308C291.629,9.66308 291.151,9.23146 291.151,8.54649ZM289.346,18.4363L290.832,10.6358L293.128,10.6358L291.645,18.4363L289.346,18.4363Z" style="fill:url(#tag17);"/>
            </g>
            <g>
                <path d="M297.994,8.44953L297.578,10.6358L299.236,10.6358L298.901,12.3748L297.244,12.3748L296.715,15.0209C296.653,15.3399 296.59,15.7403 296.59,16.0092C296.59,16.3939 296.749,16.6661 297.244,16.6661C297.45,16.6661 297.672,16.6661 297.882,16.6316L297.61,18.4363C297.322,18.5458 296.749,18.6115 296.252,18.6115C294.882,18.6115 294.229,17.9078 294.229,16.935C294.229,16.5065 294.275,16.0749 294.388,15.4838L294.995,12.3748L294.006,12.3748L294.325,10.6358L295.329,10.6358L295.649,8.99375L297.994,8.44953Z" style="fill:url(#tag18);"/>
            </g>
            <g>
                <path d="M306.718,7.27038L304.644,9.69436L302.955,9.69436L304.453,7.27038L306.718,7.27038ZM303.543,12.134C302.473,12.134 301.87,13.0129 301.71,13.7448C303.496,13.7604 304.387,13.5071 304.387,12.8033C304.387,12.4061 304.071,12.134 303.543,12.134ZM305.57,17.9891C304.659,18.452 303.527,18.5959 302.667,18.5959C300.434,18.5959 299.286,17.3354 299.286,15.3086C299.286,12.9316 301.006,10.4607 303.831,10.4607C305.41,10.4607 306.542,11.3364 306.542,12.7877C306.542,14.7832 304.613,15.4994 301.485,15.4212C301.485,15.6433 301.566,15.9936 301.726,16.2188C302.029,16.616 302.555,16.8256 303.224,16.8256C304.071,16.8256 304.788,16.6316 305.41,16.3283L305.57,17.9891Z" style="fill:url(#tag19);"/>
            </g>
            <g>
                <path d="M163.812,31.6103C163.637,31.4664 163.283,31.3382 162.902,31.3382C161.529,31.3382 160.556,32.9365 160.556,34.4346C160.556,35.3761 160.972,35.9015 161.641,35.9015C162.295,35.9015 163.108,35.2009 163.412,33.7153L163.812,31.6103ZM167.112,26.2525L165.532,34.5472C165.341,35.5512 165.197,36.6522 165.166,37.5749L163.061,37.5749L163.171,36.3175L163.139,36.3175C162.454,37.3528 161.497,37.7532 160.587,37.7532C159.264,37.7532 158.163,36.6991 158.163,34.8006C158.163,32.0889 160.127,29.6023 163.077,29.6023C163.396,29.6023 163.812,29.6492 164.143,29.7775L164.816,26.2525L167.112,26.2525Z" style="fill:url(#tag20);"/>
            </g>
            <g>
                <path d="M172.663,31.4039C172.488,31.3726 172.263,31.3382 172.041,31.3382C170.558,31.3382 169.473,33.1585 169.473,34.6098C169.473,35.3761 169.776,35.9015 170.415,35.9015C171.099,35.9015 171.944,35.1196 172.297,33.2055L172.663,31.4039ZM171.994,37.5749C172.01,37.1151 172.057,36.5896 172.103,36.0298L172.057,36.0298C171.34,37.3215 170.352,37.7532 169.442,37.7532C168.037,37.7532 167.08,36.6678 167.08,35.0414C167.08,32.4079 168.819,29.6023 172.663,29.6023C173.589,29.6023 174.593,29.7775 175.247,29.9839L174.418,34.0687C174.227,35.0727 174.083,36.6022 174.115,37.5749L171.994,37.5749Z" style="fill:url(#tag21);"/>
            </g>
            <g>
                <path d="M175.807,37.5749L176.795,32.3141C176.986,31.3257 177.114,30.4624 177.211,29.7775L179.25,29.7775L179.091,31.0692L179.122,31.0692C179.857,30.0496 180.83,29.6023 181.865,29.6023C183.141,29.6023 183.861,30.3842 183.861,31.7229C183.861,32.0732 183.798,32.6644 183.732,33.0459L182.872,37.5749L180.573,37.5749L181.39,33.2555C181.437,32.9834 181.468,32.6644 181.468,32.3766C181.468,31.8355 181.277,31.4508 180.705,31.4508C179.954,31.4508 179.075,32.3922 178.756,34.1156L178.102,37.5749L175.807,37.5749Z" style="fill:url(#tag22);"/>
            </g>
            <g>
                <path d="M185.074,35.52C185.521,35.742 186.366,36.0611 187.117,36.0611C187.77,36.0611 188.105,35.742 188.105,35.3605C188.105,34.9789 187.848,34.7068 187.132,34.3533C186.222,33.9092 185.471,33.2555 185.471,32.2828C185.471,30.672 186.891,29.6023 188.902,29.6023C189.81,29.6023 190.529,29.7775 190.91,29.9995L190.369,31.626C190.035,31.4664 189.49,31.2756 188.806,31.2756C188.199,31.2756 187.786,31.5478 187.786,31.9637C187.786,32.2828 188.105,32.5518 188.743,32.8551C189.587,33.2868 190.482,33.9092 190.482,34.9914C190.482,36.7804 188.965,37.7344 186.907,37.7344C185.919,37.7344 184.977,37.481 184.514,37.1307L185.074,35.52Z" style="fill:url(#tag23);"/>
            </g>
            <g>
                <path d="M194.357,37.5749L196.525,26.2525L198.824,26.2525L196.656,37.5749L194.357,37.5749Z" style="fill:url(#tag24);"/>
            </g>
            <g>
                <path d="M203.08,31.2756C202.014,31.2756 201.407,32.1545 201.248,32.8864C203.034,32.9021 203.928,32.6487 203.928,31.945C203.928,31.5478 203.609,31.2756 203.08,31.2756ZM205.107,37.1307C204.2,37.5936 203.065,37.7344 202.205,37.7344C199.971,37.7344 198.824,36.477 198.824,34.4503C198.824,32.0732 200.547,29.6023 203.368,29.6023C204.948,29.6023 206.08,30.4781 206.08,31.9293C206.08,33.9248 204.15,34.6411 201.026,34.5629C201.026,34.785 201.104,35.1384 201.263,35.3605C201.567,35.7577 202.092,35.9641 202.765,35.9641C203.609,35.9641 204.325,35.7733 204.948,35.4699L205.107,37.1307Z" style="fill:url(#tag25);"/>
            </g>
            <g>
                <path d="M206.862,35.52C207.309,35.742 208.154,36.0611 208.904,36.0611C209.558,36.0611 209.893,35.742 209.893,35.3605C209.893,34.9789 209.639,34.7068 208.92,34.3533C208.01,33.9092 207.262,33.2555 207.262,32.2828C207.262,30.672 208.682,29.6023 210.69,29.6023C211.6,29.6023 212.317,29.7775 212.701,29.9995L212.157,31.626C211.822,31.4664 211.281,31.2756 210.596,31.2756C209.99,31.2756 209.574,31.5478 209.574,31.9637C209.574,32.2828 209.893,32.5518 210.531,32.8551C211.375,33.2868 212.27,33.9092 212.27,34.9914C212.27,36.7804 210.756,37.7344 208.698,37.7344C207.709,37.7344 206.768,37.481 206.305,37.1307L206.862,35.52Z" style="fill:url(#tag26);"/>
            </g>
            <g>
                <path d="M222.016,31.5321C221.809,31.4195 221.506,31.357 221.121,31.357C219.72,31.357 218.747,33.0459 218.747,34.5128C218.747,35.4074 219.144,35.9015 219.72,35.9015C220.533,35.9015 221.346,35.0414 221.615,33.6214L222.016,31.5321ZM220.261,40.7339L221.202,36.4426L221.171,36.4426C220.58,37.3215 219.654,37.7532 218.763,37.7532C217.327,37.7532 216.354,36.5709 216.354,34.8006C216.354,32.3141 218.078,29.6023 221.665,29.6023C222.798,29.6023 223.786,29.84 224.552,30.0652L222.557,40.7339L220.261,40.7339Z" style="fill:url(#tag27);"/>
            </g>
            <g>
                <path d="M233.548,29.7775L232.544,35.0414C232.353,36.0298 232.24,36.8743 232.131,37.5749L230.104,37.5749L230.248,36.3019L230.217,36.3019C229.419,37.3215 228.459,37.7532 227.52,37.7532C226.276,37.7532 225.525,37.0494 225.525,35.5669C225.525,35.1384 225.575,34.6724 225.684,34.1313L226.501,29.7775L228.797,29.7775L228.015,33.9561C227.949,34.3064 227.902,34.6911 227.902,34.9789C227.902,35.4856 228.093,35.8859 228.684,35.8859C229.466,35.8859 230.263,34.9445 230.567,33.3806L231.252,29.7775L233.548,29.7775Z" style="fill:url(#tag28);"/>
            </g>
            <g>
                <path d="M239.609,31.4039C239.434,31.3726 239.212,31.3382 238.99,31.3382C237.504,31.3382 236.422,33.1585 236.422,34.6098C236.422,35.3761 236.722,35.9015 237.36,35.9015C238.045,35.9015 238.893,35.1196 239.243,33.2055L239.609,31.4039ZM238.94,37.5749C238.955,37.1151 239.005,36.5896 239.052,36.0298L239.005,36.0298C238.286,37.3215 237.298,37.7532 236.388,37.7532C234.986,37.7532 234.029,36.6678 234.029,35.0414C234.029,32.4079 235.768,29.6023 239.609,29.6023C240.535,29.6023 241.539,29.7775 242.193,29.9839L241.364,34.0687C241.173,35.0727 241.029,36.6022 241.06,37.5749L238.94,37.5749Z" style="fill:url(#tag29);"/>
            </g>
            <g>
                <path d="M242.752,37.5749L243.631,32.9365C243.853,31.7542 243.95,30.4468 244.029,29.7775L246.021,29.7775C245.974,30.3029 245.927,30.8315 245.88,31.3726L245.927,31.3726C246.471,30.3342 247.347,29.6023 248.417,29.6023C248.558,29.6023 248.705,29.6023 248.845,29.618L248.398,31.8511C248.289,31.8355 248.16,31.8355 248.032,31.8355C246.565,31.8355 245.88,33.1429 245.592,34.6724L245.051,37.5749L242.752,37.5749Z" style="fill:url(#tag30);"/>
            </g>
            <g>
                <path d="M253.49,27.5912L253.074,29.7775L254.732,29.7775L254.397,31.5165L252.739,31.5165L252.214,34.1625C252.148,34.4816 252.086,34.8819 252.086,35.154C252.086,35.5356 252.245,35.8046 252.739,35.8046C252.946,35.8046 253.168,35.8046 253.377,35.7733L253.105,37.5749C252.817,37.6875 252.245,37.7532 251.751,37.7532C250.378,37.7532 249.724,37.0494 249.724,36.0767C249.724,35.6451 249.771,35.2166 249.884,34.6254L250.49,31.5165L249.502,31.5165L249.821,29.7775L250.825,29.7775L251.144,28.1354L253.49,27.5912Z" style="fill:url(#tag31);"/>
            </g>
            <g>
                <path d="M256.424,27.6881C256.439,26.9062 257.046,26.3808 257.747,26.3808C258.416,26.3808 258.895,26.8249 258.895,27.513C258.895,28.3262 258.272,28.8047 257.54,28.8047C256.902,28.8047 256.424,28.3731 256.424,27.6881ZM254.622,37.5749L256.105,29.7775L258.4,29.7775L256.918,37.5749L254.622,37.5749Z" style="fill:url(#tag32);"/>
            </g>
            <g>
                <path d="M263.345,31.2756C262.276,31.2756 261.672,32.1545 261.513,32.8864C263.298,32.9021 264.193,32.6487 264.193,31.945C264.193,31.5478 263.874,31.2756 263.345,31.2756ZM265.372,37.1307C264.462,37.5936 263.33,37.7344 262.47,37.7344C260.236,37.7344 259.089,36.477 259.089,34.4503C259.089,32.0732 260.809,29.6023 263.633,29.6023C265.213,29.6023 266.345,30.4781 266.345,31.9293C266.345,33.9248 264.415,34.6411 261.287,34.5629C261.287,34.785 261.369,35.1384 261.528,35.3605C261.832,35.7577 262.357,35.9641 263.026,35.9641C263.874,35.9641 264.59,35.7733 265.213,35.4699L265.372,37.1307Z" style="fill:url(#tag33);"/>
            </g>
            <g>
                <path d="M266.839,37.5749L267.718,32.9365C267.94,31.7542 268.037,30.4468 268.115,29.7775L270.108,29.7775C270.061,30.3029 270.014,30.8315 269.967,31.3726L270.014,31.3726C270.558,30.3342 271.434,29.6023 272.503,29.6023C272.644,29.6023 272.788,29.6023 272.932,29.618L272.485,31.8511C272.375,31.8355 272.247,31.8355 272.119,31.8355C270.652,31.8355 269.967,33.1429 269.679,34.6724L269.138,37.5749L266.839,37.5749Z" style="fill:url(#tag34);"/>
            </g>
            <g>
                <path d="M273.029,35.52C273.476,35.742 274.321,36.0611 275.071,36.0611C275.725,36.0611 276.06,35.742 276.06,35.3605C276.06,34.9789 275.803,34.7068 275.087,34.3533C274.177,33.9092 273.429,33.2555 273.429,32.2828C273.429,30.672 274.846,29.6023 276.857,29.6023C277.764,29.6023 278.484,29.7775 278.868,29.9995L278.324,31.626C277.989,31.4664 277.445,31.2756 276.76,31.2756C276.157,31.2756 275.741,31.5478 275.741,31.9637C275.741,32.2828 276.06,32.5518 276.698,32.8551C277.542,33.2868 278.437,33.9092 278.437,34.9914C278.437,36.7804 276.92,37.7344 274.865,37.7344C273.873,37.7344 272.932,37.481 272.472,37.1307L273.029,35.52Z" style="fill:url(#tag35);"/>
            </g>
            <g>
                <path d="M288.167,31.6103C287.992,31.4664 287.642,31.3382 287.257,31.3382C285.887,31.3382 284.914,32.9365 284.914,34.4346C284.914,35.3761 285.327,35.9015 285.996,35.9015C286.65,35.9015 287.463,35.2009 287.767,33.7153L288.167,31.6103ZM291.467,26.2525L289.887,34.5472C289.696,35.5512 289.553,36.6522 289.521,37.5749L287.416,37.5749L287.529,36.3175L287.495,36.3175C286.81,37.3528 285.852,37.7532 284.945,37.7532C283.619,37.7532 282.521,36.6991 282.521,34.8006C282.521,32.0889 284.483,29.6023 287.432,29.6023C287.751,29.6023 288.167,29.6492 288.502,29.7775L289.171,26.2525L291.467,26.2525Z" style="fill:url(#tag36);"/>
            </g>
            <g>
                <path d="M294.116,26.412L292.937,28.836L294.579,28.836L296.349,26.412L294.116,26.412Z" style="fill:url(#tag37);"/>
            </g>
            <g>
                <path d="M297.544,37.5749L299.683,26.2525L301.979,26.2525L301.119,30.7658L301.15,30.7815C301.788,30.0652 302.601,29.6023 303.64,29.6023C304.85,29.6023 305.601,30.3686 305.601,31.7073C305.601,32.0732 305.538,32.6644 305.457,33.1116L304.613,37.5749L302.314,37.5749L303.111,33.3024C303.174,32.999 303.224,32.6644 303.224,32.3297C303.224,31.8199 303.002,31.4508 302.426,31.4508C301.629,31.4508 300.816,32.4235 300.512,34.003L299.843,37.5749L297.544,37.5749Z" style="fill:url(#tag38);"/>
            </g>
            <g>
                <path d="M312.301,31.4039C312.125,31.3726 311.9,31.3382 311.678,31.3382C310.196,31.3382 309.11,33.1585 309.11,34.6098C309.11,35.3761 309.414,35.9015 310.052,35.9015C310.737,35.9015 311.581,35.1196 311.935,33.2055L312.301,31.4039ZM311.631,37.5749C311.647,37.1151 311.694,36.5896 311.741,36.0298L311.694,36.0298C310.977,37.3215 309.986,37.7532 309.079,37.7532C307.675,37.7532 306.718,36.6678 306.718,35.0414C306.718,32.4079 308.457,29.6023 312.301,29.6023C313.226,29.6023 314.23,29.7775 314.884,29.9839L314.055,34.0687C313.864,35.0727 313.72,36.6022 313.752,37.5749L311.631,37.5749Z" style="fill:url(#tag39);"/>
            </g>
            <g>
                <path d="M318.187,34.2908C318.156,34.5472 318.09,34.8162 318.106,35.154C318.121,35.7108 318.459,36.0141 318.984,36.0141C320.307,36.0141 321.265,34.1625 321.265,32.7926C321.265,32.0419 320.946,31.4508 320.245,31.4508C319.416,31.4508 318.6,32.2984 318.331,33.6527L318.187,34.2908ZM319.798,26.2525L318.872,30.7033L318.903,30.7033C319.479,30.0152 320.354,29.6023 321.311,29.6023C322.941,29.6023 323.673,30.9253 323.673,32.3141C323.673,34.8506 322.015,37.7532 318.506,37.7532C316.654,37.7532 315.728,36.9556 315.728,35.5669C315.728,35.0883 315.81,34.6098 315.907,34.1469L317.483,26.2525L319.798,26.2525Z" style="fill:url(#tag40);"/>
            </g>
            <g>
                <path d="M326.097,27.6881C326.116,26.9062 326.719,26.3808 327.423,26.3808C328.092,26.3808 328.571,26.8249 328.571,27.513C328.571,28.3262 327.948,28.8047 327.213,28.8047C326.575,28.8047 326.097,28.3731 326.097,27.6881ZM324.295,37.5749L325.778,29.7775L328.077,29.7775L326.594,37.5749L324.295,37.5749Z" style="fill:url(#tag41);"/>
            </g>
            <g>
                <path d="M332.94,27.5912L332.527,29.7775L334.185,29.7775L333.851,31.5165L332.193,31.5165L331.667,34.1625C331.602,34.4816 331.539,34.8819 331.539,35.154C331.539,35.5356 331.696,35.8046 332.193,35.8046C332.399,35.8046 332.621,35.8046 332.831,35.7733L332.559,37.5749C332.271,37.6875 331.696,37.7532 331.201,37.7532C329.831,37.7532 329.178,37.0494 329.178,36.0767C329.178,35.6451 329.225,35.2166 329.337,34.6254L329.944,31.5165L328.953,31.5165L329.272,29.7775L330.279,29.7775L330.598,28.1354L332.94,27.5912Z" style="fill:url(#tag42);"/>
            </g>
            <g>
                <path d="M339.803,31.4039C339.624,31.3726 339.402,31.3382 339.177,31.3382C337.694,31.3382 336.609,33.1585 336.609,34.6098C336.609,35.3761 336.913,35.9015 337.551,35.9015C338.239,35.9015 339.083,35.1196 339.433,33.2055L339.803,31.4039ZM339.13,37.5749C339.146,37.1151 339.196,36.5896 339.243,36.0298L339.196,36.0298C338.476,37.3215 337.488,37.7532 336.578,37.7532C335.177,37.7532 334.216,36.6678 334.216,35.0414C334.216,32.4079 335.955,29.6023 339.803,29.6023C340.725,29.6023 341.729,29.7775 342.386,29.9839L341.554,34.0687C341.363,35.0727 341.219,36.6022 341.251,37.5749L339.13,37.5749Z" style="fill:url(#tag43);"/>
            </g>
            <g>
                <path d="M347.331,27.5912L346.915,29.7775L348.573,29.7775L348.238,31.5165L346.58,31.5165L346.055,34.1625C345.989,34.4816 345.927,34.8819 345.927,35.154C345.927,35.5356 346.086,35.8046 346.58,35.8046C346.787,35.8046 347.012,35.8046 347.218,35.7733L346.946,37.5749C346.659,37.6875 346.086,37.7532 345.592,37.7532C344.219,37.7532 343.565,37.0494 343.565,36.0767C343.565,35.6451 343.612,35.2166 343.725,34.6254L344.331,31.5165L343.343,31.5165L343.659,29.7775L344.666,29.7775L344.985,28.1354L347.331,27.5912Z" style="fill:url(#tag44);"/>
            </g>
            <g>
                <path d="M350.265,27.6881C350.28,26.9062 350.887,26.3808 351.588,26.3808C352.257,26.3808 352.736,26.8249 352.736,27.513C352.736,28.3262 352.116,28.8047 351.381,28.8047C350.743,28.8047 350.265,28.3731 350.265,27.6881ZM348.463,37.5749L349.946,29.7775L352.242,29.7775L350.759,37.5749L348.463,37.5749Z" style="fill:url(#tag45);"/>
            </g>
            <g>
                <path d="M355.335,34.4816C355.335,35.3917 355.785,35.9985 356.58,35.9985C357.84,35.9985 358.544,34.1625 358.544,32.8239C358.544,32.1045 358.24,31.3382 357.315,31.3382C355.992,31.3382 355.322,33.2711 355.335,34.4816ZM360.918,32.8082C360.918,35.6638 358.976,37.7532 356.264,37.7532C354.284,37.7532 352.961,36.4614 352.961,34.5316C352.961,31.8199 354.844,29.6023 357.618,29.6023C359.707,29.6023 360.918,31.0379 360.918,32.8082Z" style="fill:url(#tag46);"/>
            </g>
            <g>
                <path d="M361.606,37.5749L362.597,32.3141C362.785,31.3257 362.913,30.4624 363.01,29.7775L365.053,29.7775L364.893,31.0692L364.924,31.0692C365.656,30.0496 366.629,29.6023 367.667,29.6023C368.944,29.6023 369.66,30.3842 369.66,31.7229C369.66,32.0732 369.597,32.6644 369.532,33.0459L368.671,37.5749L366.376,37.5749L367.189,33.2555C367.236,32.9834 367.27,32.6644 367.27,32.3766C367.27,31.8355 367.076,31.4508 366.504,31.4508C365.753,31.4508 364.874,32.3922 364.555,34.1156L363.902,37.5749L361.606,37.5749Z" style="fill:url(#tag47);"/>
            </g>
            <g>
                <path d="M168.006,12.3091L164.097,12.3091L163.746,14.1451L165.407,14.1451L164.975,16.4096C164.719,16.5222 164.337,16.6004 163.812,16.6004C162.12,16.6004 161.05,15.6902 161.05,13.8886C161.05,12.4217 161.673,11.1456 162.598,10.4106C163.318,9.85388 164.275,9.55049 165.341,9.55049C166.298,9.55049 167.127,9.77256 167.625,9.99775L168.31,8.05231C167.894,7.84275 166.858,7.57377 165.454,7.57377C163.587,7.57377 161.929,8.1305 160.715,9.1345C159.345,10.3011 158.514,12.0402 158.514,14.0482C158.514,15.4212 159.011,16.6004 159.871,17.3667C160.765,18.1642 161.976,18.5458 163.458,18.5458C164.816,18.5458 166.108,18.2112 166.936,17.9422L168.006,12.3091Z" style="fill:rgb(105,94,81);fill-rule:nonzero;"/>
            </g>
            <g>
                <path d="M175.056,16.3283C174.434,16.6316 173.717,16.8256 172.87,16.8256C172.2,16.8256 171.675,16.616 171.372,16.2188C171.212,15.9936 171.131,15.6433 171.131,15.4212C174.258,15.4994 176.188,14.7832 176.188,12.7877C176.188,11.3364 175.056,10.4607 173.477,10.4607C170.652,10.4607 168.932,12.9316 168.932,15.3086C168.932,17.3354 170.08,18.5959 172.313,18.5959C173.173,18.5959 174.305,18.452 175.216,17.9891L175.056,16.3283ZM174.036,12.8033C174.036,13.5071 173.142,13.7604 171.356,13.7448C171.515,13.0129 172.122,12.134 173.189,12.134C173.717,12.134 174.036,12.4061 174.036,12.8033Z" style="fill:rgb(105,94,81);fill-rule:nonzero;"/>
            </g>
            <g>
                <path d="M176.413,17.9891C176.876,18.3394 177.815,18.5959 178.806,18.5959C180.864,18.5959 182.378,17.6388 182.378,15.8497C182.378,14.7675 181.484,14.1451 180.639,13.7135C180.001,13.4101 179.682,13.138 179.682,12.819C179.682,12.4061 180.098,12.134 180.705,12.134C181.39,12.134 181.931,12.3248 182.265,12.4843L182.81,10.8579C182.425,10.6358 181.709,10.4607 180.799,10.4607C178.791,10.4607 177.371,11.5272 177.371,13.138C177.371,14.1138 178.118,14.7675 179.028,15.2117C179.748,15.5651 180.001,15.8341 180.001,16.2188C180.001,16.6004 179.666,16.9194 179.013,16.9194C178.262,16.9194 177.417,16.6004 176.97,16.3783L176.413,17.9891Z" style="fill:rgb(105,94,81);fill-rule:nonzero;"/>
            </g>
            <g>
                <path d="M185.393,8.99062L185.074,10.6358L184.07,10.6358L183.751,12.3748L184.739,12.3748L184.133,15.4838C184.02,16.0749 183.973,16.5065 183.973,16.935C183.973,17.9078 184.627,18.6115 186,18.6115C186.494,18.6115 187.066,18.5458 187.354,18.4363L187.626,16.6316C187.42,16.6661 187.195,16.6661 186.988,16.6661C186.494,16.6661 186.335,16.3939 186.335,16.0092C186.335,15.7403 186.397,15.3399 186.463,15.0209L186.988,12.3748L188.646,12.3748L188.981,10.6358L187.323,10.6358L187.739,8.44953L185.393,8.99062Z" style="fill:rgb(105,94,81);fill-rule:nonzero;"/>
            </g>
            <g>
                <path d="M191.167,18.4363L192.649,10.6358L190.354,10.6358L188.871,18.4363L191.167,18.4363ZM191.789,9.66308C192.524,9.66308 193.144,9.18454 193.144,8.37133C193.144,7.68324 192.665,7.23597 191.996,7.23597C191.295,7.23597 190.688,7.76456 190.673,8.54649C190.673,9.23146 191.151,9.66308 191.789,9.66308Z" style="fill:rgb(105,94,81);fill-rule:nonzero;"/>
            </g>
            <g>
                <path d="M198.026,10.4607C195.252,10.4607 193.369,12.6782 193.369,15.3899C193.369,17.3197 194.692,18.6115 196.672,18.6115C199.383,18.6115 201.329,16.5222 201.329,13.6666C201.329,11.8963 200.115,10.4607 198.026,10.4607ZM197.723,12.1997C198.648,12.1997 198.952,12.9628 198.952,13.6822C198.952,15.0209 198.248,16.8568 196.991,16.8568C196.193,16.8568 195.746,16.2501 195.746,15.3399C195.73,14.1295 196.4,12.1997 197.723,12.1997Z" style="fill:rgb(105,94,81);fill-rule:nonzero;"/>
            </g>
            <g>
                <path d="M204.31,18.4363L204.963,14.974C205.282,13.2506 206.161,12.3091 206.912,12.3091C207.484,12.3091 207.675,12.6938 207.675,13.2349C207.675,13.5227 207.644,13.8417 207.597,14.1138L206.784,18.4363L209.079,18.4363L209.943,13.9043C210.005,13.5227 210.068,12.9316 210.068,12.5813C210.068,11.2426 209.352,10.4607 208.075,10.4607C207.037,10.4607 206.064,10.9048 205.332,11.9276L205.301,11.9276L205.461,10.6358L203.418,10.6358C203.321,11.3208 203.193,12.1809 203.002,13.1724L202.014,18.4363L204.31,18.4363Z" style="fill:rgb(105,94,81);fill-rule:nonzero;"/>
            </g>
            <g>
                <path d="M220.79,7.11086L220.117,10.6358C219.782,10.5076 219.37,10.4607 219.051,10.4607C216.098,10.4607 214.137,12.9472 214.137,15.6589C214.137,17.5575 215.238,18.6115 216.561,18.6115C217.471,18.6115 218.428,18.2112 219.113,17.1759L219.144,17.1759L219.035,18.4363L221.14,18.4363C221.171,17.5105 221.315,16.4096 221.506,15.4056L223.085,7.11086L220.79,7.11086ZM219.385,14.5736C219.082,16.0593 218.269,16.7599 217.615,16.7599C216.946,16.7599 216.53,16.2344 216.53,15.293C216.53,13.7948 217.502,12.1997 218.875,12.1997C219.257,12.1997 219.607,12.3248 219.782,12.4687L219.385,14.5736Z" style="fill:rgb(105,94,81);fill-rule:nonzero;"/>
            </g>
            <g>
                <path d="M229.228,16.3283C228.606,16.6316 227.886,16.8256 227.042,16.8256C226.373,16.8256 225.844,16.616 225.541,16.2188C225.381,15.9936 225.303,15.6433 225.303,15.4212C228.431,15.4994 230.36,14.7832 230.36,12.7877C230.36,11.3364 229.228,10.4607 227.649,10.4607C224.824,10.4607 223.101,12.9316 223.101,15.3086C223.101,17.3354 224.249,18.5959 226.482,18.5959C227.345,18.5959 228.478,18.452 229.388,17.9891L229.228,16.3283ZM228.205,12.8033C228.205,13.5071 227.314,13.7604 225.525,13.7448C225.684,13.0129 226.291,12.134 227.361,12.134C227.886,12.134 228.205,12.4061 228.205,12.8033Z" style="fill:rgb(105,94,81);fill-rule:nonzero;"/>
            </g>
            <g>
                <path d="M236.087,18.4363L238.255,7.11086L235.959,7.11086L233.788,18.4363L236.087,18.4363Z" style="fill:rgb(105,94,81);fill-rule:nonzero;"/>
            </g>
            <g>
                <path d="M245.242,18.4363C245.211,17.4636 245.355,15.931 245.546,14.927L246.374,10.8422C245.721,10.6358 244.717,10.4607 243.791,10.4607C239.947,10.4607 238.208,13.2662 238.208,15.8998C238.208,17.5262 239.165,18.6115 240.569,18.6115C241.476,18.6115 242.468,18.1799 243.184,16.8881L243.231,16.8881C243.184,17.4449 243.137,17.9734 243.122,18.4363L245.242,18.4363ZM243.425,14.0638C243.071,15.978 242.227,16.7599 241.542,16.7599C240.904,16.7599 240.601,16.2344 240.601,15.4681C240.601,14.0169 241.686,12.1997 243.168,12.1997C243.391,12.1997 243.616,12.2309 243.791,12.2622L243.425,14.0638Z" style="fill:rgb(105,94,81);fill-rule:nonzero;"/>
            </g>
            <g>
                <path d="M252.004,18.4363L252.642,14.927C252.93,13.3945 253.743,12.2935 254.525,12.2935C255.085,12.2935 255.26,12.7251 255.26,13.2506C255.26,13.5227 255.21,13.8261 255.148,14.1451L254.35,18.4363L256.568,18.4363L257.221,14.8926C257.525,13.3319 258.275,12.2935 259.039,12.2935C259.583,12.2935 259.82,12.6782 259.82,13.2193C259.82,13.5227 259.774,13.8574 259.711,14.1764L258.929,18.4363L261.147,18.4363L261.991,13.8886C262.069,13.4914 262.135,12.8846 262.135,12.55C262.135,11.2238 261.431,10.4607 260.221,10.4607C259.214,10.4607 258.241,10.9236 257.54,11.9276C257.478,11.2426 256.934,10.4607 255.689,10.4607C254.685,10.4607 253.728,10.8892 253.027,11.8963L252.993,11.8963L253.136,10.6358L251.16,10.6358C251.063,11.3208 250.938,12.1809 250.759,13.1724L249.787,18.4363L252.004,18.4363Z" style="fill:rgb(105,94,81);fill-rule:nonzero;"/>
            </g>
            <g>
                <path d="M267.971,10.4607C265.197,10.4607 263.314,12.6782 263.314,15.3899C263.314,17.3197 264.637,18.6115 266.617,18.6115C269.329,18.6115 271.274,16.5222 271.274,13.6666C271.274,11.8963 270.061,10.4607 267.971,10.4607ZM267.668,12.1997C268.594,12.1997 268.897,12.9628 268.897,13.6822C268.897,15.0209 268.196,16.8568 266.936,16.8568C266.138,16.8568 265.691,16.2501 265.691,15.3399C265.676,14.1295 266.345,12.1997 267.668,12.1997Z" style="fill:rgb(105,94,81);fill-rule:nonzero;"/>
            </g>
            <g>
                <path d="M274.083,7.11086L272.503,15.0052C272.406,15.4681 272.328,15.9467 272.328,16.4252C272.328,17.8139 273.251,18.6115 275.102,18.6115C278.612,18.6115 280.27,15.709 280.27,13.1724C280.27,11.7837 279.538,10.4607 277.911,10.4607C276.954,10.4607 276.075,10.8735 275.503,11.5616L275.468,11.5616L276.394,7.11086L274.083,7.11086ZM274.927,14.5111C275.199,13.1568 276.013,12.3091 276.842,12.3091C277.542,12.3091 277.861,12.9003 277.861,13.6509C277.861,15.0209 276.904,16.8725 275.581,16.8725C275.056,16.8725 274.721,16.5691 274.705,16.0092C274.687,15.6746 274.752,15.4056 274.783,15.1491L274.927,14.5111Z" style="fill:rgb(105,94,81);fill-rule:nonzero;"/>
            </g>
            <g>
                <path d="M283.191,18.4363L284.673,10.6358L282.378,10.6358L280.892,18.4363L283.191,18.4363ZM283.813,9.66308C284.545,9.66308 285.168,9.18454 285.168,8.37133C285.168,7.68324 284.689,7.23597 284.02,7.23597C283.319,7.23597 282.712,7.76456 282.697,8.54649C282.697,9.23146 283.175,9.66308 283.813,9.66308Z" style="fill:rgb(105,94,81);fill-rule:nonzero;"/>
            </g>
            <g>
                <path d="M287.416,18.4363L289.587,7.11086L287.288,7.11086L285.121,18.4363L287.416,18.4363Z" style="fill:rgb(105,94,81);fill-rule:nonzero;"/>
            </g>
            <g>
                <path d="M291.645,18.4363L293.128,10.6358L290.832,10.6358L289.346,18.4363L291.645,18.4363ZM292.267,9.66308C292.999,9.66308 293.622,9.18454 293.622,8.37133C293.622,7.68324 293.143,7.23597 292.474,7.23597C291.773,7.23597 291.166,7.76456 291.151,8.54649C291.151,9.23146 291.629,9.66308 292.267,9.66308Z" style="fill:rgb(105,94,81);fill-rule:nonzero;"/>
            </g>
            <g>
                <path d="M295.649,8.99062L295.329,10.6358L294.322,10.6358L294.003,12.3748L294.995,12.3748L294.388,15.4838C294.275,16.0749 294.229,16.5065 294.229,16.935C294.229,17.9078 294.882,18.6115 296.255,18.6115C296.749,18.6115 297.322,18.5458 297.61,18.4363L297.882,16.6316C297.672,16.6661 297.45,16.6661 297.244,16.6661C296.749,16.6661 296.59,16.3939 296.59,16.0092C296.59,15.7403 296.653,15.3399 296.715,15.0209L297.244,12.3748L298.901,12.3748L299.236,10.6358L297.578,10.6358L297.991,8.44953L295.649,8.99062Z" style="fill:rgb(105,94,81);fill-rule:nonzero;"/>
            </g>
            <g>
                <path d="M304.453,7.27038L302.955,9.69436L304.644,9.69436L306.718,7.27038L304.453,7.27038ZM305.41,16.3283C304.788,16.6316 304.071,16.8256 303.224,16.8256C302.555,16.8256 302.029,16.616 301.726,16.2188C301.566,15.9936 301.485,15.6433 301.485,15.4212C304.613,15.4994 306.542,14.7832 306.542,12.7877C306.542,11.3364 305.41,10.4607 303.831,10.4607C301.006,10.4607 299.286,12.9316 299.286,15.3086C299.286,17.3354 300.434,18.5959 302.667,18.5959C303.527,18.5959 304.659,18.452 305.57,17.9891L305.41,16.3283ZM304.391,12.8033C304.391,13.5071 303.496,13.7604 301.71,13.7448C301.87,13.0129 302.476,12.134 303.543,12.134C304.071,12.134 304.391,12.4061 304.391,12.8033Z" style="fill:rgb(105,94,81);fill-rule:nonzero;"/>
            </g>
            <g>
                <path d="M164.816,26.2525L164.147,29.7775C163.812,29.6492 163.396,29.6023 163.077,29.6023C160.127,29.6023 158.163,32.0889 158.163,34.8006C158.163,36.6991 159.264,37.7532 160.587,37.7532C161.497,37.7532 162.454,37.3528 163.139,36.3175L163.174,36.3175L163.061,37.578L165.166,37.578C165.197,36.6522 165.341,35.5512 165.532,34.5472L167.112,26.2525L164.816,26.2525ZM163.412,33.7153C163.108,35.2009 162.295,35.9015 161.641,35.9015C160.972,35.9015 160.556,35.3761 160.556,34.4346C160.556,32.9333 161.529,31.3382 162.902,31.3382C163.283,31.3382 163.637,31.4664 163.812,31.6103L163.412,33.7153Z" style="fill:rgb(105,94,81);fill-rule:nonzero;"/>
            </g>
            <g>
                <path d="M174.115,37.578C174.083,36.6022 174.227,35.0727 174.418,34.0687L175.247,29.9839C174.593,29.7775 173.589,29.6023 172.663,29.6023C168.819,29.6023 167.08,32.4079 167.08,35.0414C167.08,36.6678 168.037,37.7532 169.442,37.7532C170.352,37.7532 171.34,37.3215 172.057,36.0298L172.107,36.0298C172.057,36.5865 172.01,37.1151 171.994,37.578L174.115,37.578ZM172.297,33.2055C171.947,35.1196 171.099,35.9015 170.415,35.9015C169.776,35.9015 169.473,35.3761 169.473,34.6098C169.473,33.1585 170.558,31.3382 172.041,31.3382C172.266,31.3382 172.488,31.3726 172.663,31.4039L172.297,33.2055Z" style="fill:rgb(105,94,81);fill-rule:nonzero;"/>
            </g>
            <g>
                <path d="M178.102,37.578L178.756,34.1156C179.075,32.3922 179.954,31.4508 180.702,31.4508C181.277,31.4508 181.468,31.8355 181.468,32.3766C181.468,32.6644 181.437,32.9834 181.39,33.2524L180.576,37.578L182.872,37.578L183.732,33.0459C183.798,32.6644 183.861,32.0732 183.861,31.7229C183.861,30.3811 183.144,29.6023 181.868,29.6023C180.83,29.6023 179.857,30.0465 179.125,31.0692L179.091,31.0692L179.25,29.7775L177.211,29.7775C177.114,30.4624 176.986,31.3226 176.795,32.3141L175.807,37.578L178.102,37.578Z" style="fill:rgb(105,94,81);fill-rule:nonzero;"/>
            </g>
            <g>
                <path d="M184.514,37.1307C184.977,37.481 185.919,37.7375 186.907,37.7375C188.965,37.7375 190.482,36.7804 190.482,34.9914C190.482,33.9092 189.587,33.2868 188.743,32.8551C188.105,32.5518 187.786,32.2796 187.786,31.9606C187.786,31.5478 188.199,31.2756 188.806,31.2756C189.494,31.2756 190.035,31.4664 190.369,31.626L190.91,29.9995C190.529,29.7775 189.813,29.6023 188.902,29.6023C186.891,29.6023 185.471,30.6689 185.471,32.2796C185.471,33.2524 186.222,33.9092 187.132,34.3533C187.848,34.7068 188.105,34.9757 188.105,35.3605C188.105,35.742 187.77,36.0611 187.117,36.0611C186.366,36.0611 185.521,35.742 185.074,35.52L184.514,37.1307Z" style="fill:rgb(105,94,81);fill-rule:nonzero;"/>
            </g>
            <g>
                <path d="M196.653,37.578L198.824,26.2525L196.528,26.2525L194.357,37.578L196.653,37.578Z" style="fill:rgb(105,94,81);fill-rule:nonzero;"/>
            </g>
            <g>
                <path d="M204.948,35.4699C204.325,35.7733 203.609,35.9641 202.765,35.9641C202.092,35.9641 201.567,35.7577 201.263,35.3605C201.104,35.1353 201.026,34.785 201.026,34.5629C204.15,34.6411 206.08,33.9248 206.08,31.9293C206.08,30.4781 204.948,29.6023 203.368,29.6023C200.547,29.6023 198.824,32.0732 198.824,34.4503C198.824,36.477 199.971,37.7375 202.205,37.7375C203.068,37.7375 204.2,37.5936 205.107,37.1307L204.948,35.4699ZM203.928,31.945C203.928,32.6487 203.034,32.9021 201.248,32.8864C201.407,32.1545 202.014,31.2756 203.084,31.2756C203.609,31.2756 203.928,31.5478 203.928,31.945Z" style="fill:rgb(105,94,81);fill-rule:nonzero;"/>
            </g>
            <g>
                <path d="M206.305,37.1307C206.768,37.481 207.709,37.7375 208.698,37.7375C210.756,37.7375 212.27,36.7804 212.27,34.9914C212.27,33.9092 211.378,33.2868 210.531,32.8551C209.893,32.5518 209.574,32.2796 209.574,31.9606C209.574,31.5478 209.99,31.2756 210.596,31.2756C211.281,31.2756 211.822,31.4664 212.16,31.626L212.701,29.9995C212.32,29.7775 211.6,29.6023 210.69,29.6023C208.682,29.6023 207.262,30.6689 207.262,32.2796C207.262,33.2524 208.013,33.9092 208.92,34.3533C209.639,34.7068 209.893,34.9757 209.893,35.3605C209.893,35.742 209.558,36.0611 208.904,36.0611C208.154,36.0611 207.309,35.742 206.862,35.52L206.305,37.1307Z" style="fill:rgb(105,94,81);fill-rule:nonzero;"/>
            </g>
            <g>
                <path d="M222.56,40.7339L224.552,30.0621C223.786,29.84 222.798,29.6023 221.665,29.6023C218.078,29.6023 216.354,32.3141 216.354,34.8006C216.354,36.5709 217.327,37.7532 218.763,37.7532C219.654,37.7532 220.58,37.3215 221.171,36.4426L221.202,36.4426L220.261,40.7339L222.56,40.7339ZM221.618,33.6214C221.346,35.0414 220.533,35.9015 219.72,35.9015C219.144,35.9015 218.747,35.4074 218.747,34.5128C218.747,33.0459 219.72,31.357 221.124,31.357C221.506,31.357 221.809,31.4195 222.016,31.5321L221.618,33.6214Z" style="fill:rgb(105,94,81);fill-rule:nonzero;"/>
            </g>
            <g>
                <path d="M231.252,29.7775L230.567,33.3806C230.263,34.9445 229.466,35.8859 228.684,35.8859C228.093,35.8859 227.902,35.4856 227.902,34.9757C227.902,34.688 227.949,34.3064 228.015,33.9561L228.797,29.7775L226.498,29.7775L225.684,34.1313C225.575,34.6724 225.525,35.1353 225.525,35.5669C225.525,37.0494 226.276,37.7532 227.52,37.7532C228.462,37.7532 229.419,37.3215 230.217,36.3019L230.248,36.3019L230.104,37.578L232.131,37.578C232.24,36.8743 232.353,36.0298 232.544,35.0414L233.551,29.7775L231.252,29.7775Z" style="fill:rgb(105,94,81);fill-rule:nonzero;"/>
            </g>
            <g>
                <path d="M241.063,37.578C241.029,36.6022 241.173,35.0727 241.367,34.0687L242.196,29.9839C241.542,29.7775 240.535,29.6023 239.612,29.6023C235.765,29.6023 234.029,32.4079 234.029,35.0414C234.029,36.6678 234.986,37.7532 236.388,37.7532C237.298,37.7532 238.286,37.3215 239.005,36.0298L239.052,36.0298C239.005,36.5865 238.955,37.1151 238.94,37.578L241.063,37.578ZM239.243,33.2055C238.893,35.1196 238.048,35.9015 237.36,35.9015C236.722,35.9015 236.422,35.3761 236.422,34.6098C236.422,33.1585 237.504,31.3382 238.99,31.3382C239.212,31.3382 239.434,31.3726 239.612,31.4039L239.243,33.2055Z" style="fill:rgb(105,94,81);fill-rule:nonzero;"/>
            </g>
            <g>
                <path d="M245.051,37.578L245.592,34.6724C245.88,33.1429 246.565,31.8355 248.032,31.8355C248.16,31.8355 248.289,31.8355 248.401,31.8511L248.845,29.618C248.705,29.6023 248.561,29.6023 248.417,29.6023C247.347,29.6023 246.471,30.3342 245.927,31.3726L245.88,31.3726C245.927,30.8284 245.974,30.3029 246.024,29.7775L244.029,29.7775C243.95,30.4468 243.853,31.7542 243.631,32.9333L242.752,37.578L245.051,37.578Z" style="fill:rgb(105,94,81);fill-rule:nonzero;"/>
            </g>
            <g>
                <path d="M251.144,28.1323L250.825,29.7775L249.821,29.7775L249.502,31.5165L250.49,31.5165L249.884,34.6254C249.771,35.2166 249.724,35.6451 249.724,36.0767C249.724,37.0494 250.378,37.7532 251.751,37.7532C252.245,37.7532 252.817,37.6875 253.105,37.578L253.377,35.7733C253.171,35.8046 252.946,35.8046 252.739,35.8046C252.245,35.8046 252.086,35.5356 252.086,35.1509C252.086,34.8819 252.148,34.4816 252.214,34.1625L252.739,31.5165L254.397,31.5165L254.732,29.7775L253.074,29.7775L253.49,27.5912L251.144,28.1323Z" style="fill:rgb(105,94,81);fill-rule:nonzero;"/>
            </g>
            <g>
                <path d="M256.918,37.578L258.4,29.7775L256.105,29.7775L254.622,37.578L256.918,37.578ZM257.54,28.8047C258.275,28.8047 258.895,28.3262 258.895,27.5099C258.895,26.8249 258.416,26.3776 257.747,26.3776C257.046,26.3776 256.439,26.9062 256.424,27.6881C256.424,28.3731 256.902,28.8047 257.54,28.8047Z" style="fill:rgb(105,94,81);fill-rule:nonzero;"/>
            </g>
            <g>
                <path d="M265.213,35.4699C264.59,35.7733 263.874,35.9641 263.026,35.9641C262.357,35.9641 261.832,35.7577 261.528,35.3605C261.369,35.1353 261.287,34.785 261.287,34.5629C264.415,34.6411 266.345,33.9248 266.345,31.9293C266.345,30.4781 265.213,29.6023 263.633,29.6023C260.809,29.6023 259.089,32.0732 259.089,34.4503C259.089,36.477 260.236,37.7375 262.47,37.7375C263.33,37.7375 264.462,37.5936 265.372,37.1307L265.213,35.4699ZM264.193,31.945C264.193,32.6487 263.298,32.9021 261.513,32.8864C261.672,32.1545 262.279,31.2756 263.345,31.2756C263.874,31.2756 264.193,31.5478 264.193,31.945Z" style="fill:rgb(105,94,81);fill-rule:nonzero;"/>
            </g>
            <g>
                <path d="M269.138,37.578L269.679,34.6724C269.967,33.1429 270.652,31.8355 272.119,31.8355C272.247,31.8355 272.375,31.8355 272.488,31.8511L272.932,29.618C272.791,29.6023 272.647,29.6023 272.503,29.6023C271.434,29.6023 270.558,30.3342 270.014,31.3726L269.967,31.3726C270.014,30.8284 270.061,30.3029 270.111,29.7775L268.115,29.7775C268.037,30.4468 267.94,31.7542 267.718,32.9333L266.839,37.578L269.138,37.578Z" style="fill:rgb(105,94,81);fill-rule:nonzero;"/>
            </g>
            <g>
                <path d="M272.472,37.1307C272.932,37.481 273.873,37.7375 274.865,37.7375C276.92,37.7375 278.437,36.7804 278.437,34.9914C278.437,33.9092 277.542,33.2868 276.698,32.8551C276.06,32.5518 275.741,32.2796 275.741,31.9606C275.741,31.5478 276.157,31.2756 276.76,31.2756C277.448,31.2756 277.989,31.4664 278.324,31.626L278.868,29.9995C278.484,29.7775 277.767,29.6023 276.857,29.6023C274.846,29.6023 273.429,30.6689 273.429,32.2796C273.429,33.2524 274.177,33.9092 275.087,34.3533C275.803,34.7068 276.06,34.9757 276.06,35.3605C276.06,35.742 275.725,36.0611 275.071,36.0611C274.321,36.0611 273.476,35.742 273.029,35.52L272.472,37.1307Z" style="fill:rgb(105,94,81);fill-rule:nonzero;"/>
            </g>
            <g>
                <path d="M289.171,26.2525L288.502,29.7775C288.167,29.6492 287.751,29.6023 287.432,29.6023C284.483,29.6023 282.518,32.0889 282.518,34.8006C282.518,36.6991 283.619,37.7532 284.945,37.7532C285.852,37.7532 286.81,37.3528 287.498,36.3175L287.529,36.3175L287.416,37.578L289.521,37.578C289.556,36.6522 289.696,35.5512 289.89,34.5472L291.47,26.2525L289.171,26.2525ZM287.767,33.7153C287.463,35.2009 286.65,35.9015 285.996,35.9015C285.327,35.9015 284.911,35.3761 284.911,34.4346C284.911,32.9333 285.887,31.3382 287.257,31.3382C287.642,31.3382 287.992,31.4664 288.167,31.6103L287.767,33.7153Z" style="fill:rgb(105,94,81);fill-rule:nonzero;"/>
            </g>
            <g>
                <path d="M299.843,37.578L300.512,34.003C300.816,32.4235 301.629,31.4508 302.426,31.4508C303.002,31.4508 303.224,31.8167 303.224,32.3297C303.224,32.6644 303.177,32.999 303.114,33.3024L302.317,37.578L304.613,37.578L305.457,33.1116C305.538,32.6644 305.601,32.0732 305.601,31.7073C305.601,30.3655 304.85,29.6023 303.64,29.6023C302.601,29.6023 301.788,30.0621 301.15,30.7815L301.119,30.7658L301.979,26.2525L299.683,26.2525L297.547,37.578L299.843,37.578Z" style="fill:rgb(105,94,81);fill-rule:nonzero;"/>
            </g>
            <g>
                <path d="M313.752,37.578C313.72,36.6022 313.864,35.0727 314.055,34.0687L314.884,29.9839C314.23,29.7775 313.226,29.6023 312.301,29.6023C308.457,29.6023 306.718,32.4079 306.718,35.0414C306.718,36.6678 307.675,37.7532 309.079,37.7532C309.989,37.7532 310.977,37.3215 311.694,36.0298L311.744,36.0298C311.694,36.5865 311.647,37.1151 311.631,37.578L313.752,37.578ZM311.935,33.2055C311.584,35.1196 310.737,35.9015 310.052,35.9015C309.414,35.9015 309.11,35.3761 309.11,34.6098C309.11,33.1585 310.196,31.3382 311.678,31.3382C311.903,31.3382 312.125,31.3726 312.301,31.4039L311.935,33.2055Z" style="fill:rgb(105,94,81);fill-rule:nonzero;"/>
            </g>
            <g>
                <path d="M317.486,26.2525L315.907,34.1469C315.81,34.6098 315.732,35.0883 315.732,35.5669C315.732,36.9556 316.654,37.7532 318.506,37.7532C322.015,37.7532 323.673,34.8475 323.673,32.3141C323.673,30.9253 322.941,29.6023 321.315,29.6023C320.358,29.6023 319.479,30.0152 318.903,30.7001L318.872,30.7001L319.798,26.2525L317.486,26.2525ZM318.331,33.6527C318.603,32.2953 319.416,31.4508 320.245,31.4508C320.946,31.4508 321.265,32.0419 321.265,32.7926C321.265,34.1625 320.307,36.0141 318.984,36.0141C318.459,36.0141 318.124,35.7108 318.106,35.1509C318.09,34.8162 318.156,34.5472 318.187,34.2908L318.331,33.6527Z" style="fill:rgb(105,94,81);fill-rule:nonzero;"/>
            </g>
            <g>
                <path d="M326.594,37.578L328.077,29.7775L325.781,29.7775L324.295,37.578L326.594,37.578ZM327.217,28.8047C327.948,28.8047 328.571,28.3262 328.571,27.5099C328.571,26.8249 328.092,26.3776 327.423,26.3776C326.719,26.3776 326.116,26.9062 326.1,27.6881C326.1,28.3731 326.579,28.8047 327.217,28.8047Z" style="fill:rgb(105,94,81);fill-rule:nonzero;"/>
            </g>
            <g>
                <path d="M330.598,28.1323L330.279,29.7775L329.272,29.7775L328.953,31.5165L329.944,31.5165L329.337,34.6254C329.225,35.2166 329.178,35.6451 329.178,36.0767C329.178,37.0494 329.831,37.7532 331.204,37.7532C331.699,37.7532 332.271,37.6875 332.559,37.578L332.831,35.7733C332.621,35.8046 332.399,35.8046 332.193,35.8046C331.699,35.8046 331.539,35.5356 331.539,35.1509C331.539,34.8819 331.602,34.4816 331.664,34.1625L332.193,31.5165L333.851,31.5165L334.185,29.7775L332.527,29.7775L332.94,27.5912L330.598,28.1323Z" style="fill:rgb(105,94,81);fill-rule:nonzero;"/>
            </g>
            <g>
                <path d="M341.254,37.578C341.219,36.6022 341.363,35.0727 341.557,34.0687L342.386,29.9839C341.732,29.7775 340.725,29.6023 339.803,29.6023C335.955,29.6023 334.22,32.4079 334.22,35.0414C334.22,36.6678 335.177,37.7532 336.578,37.7532C337.488,37.7532 338.476,37.3215 339.196,36.0298L339.243,36.0298C339.196,36.5865 339.146,37.1151 339.13,37.578L341.254,37.578ZM339.433,33.2055C339.083,35.1196 338.239,35.9015 337.551,35.9015C336.913,35.9015 336.612,35.3761 336.612,34.6098C336.612,33.1585 337.694,31.3382 339.18,31.3382C339.402,31.3382 339.624,31.3726 339.803,31.4039L339.433,33.2055Z" style="fill:rgb(105,94,81);fill-rule:nonzero;"/>
            </g>
            <g>
                <path d="M344.985,28.1323L344.666,29.7775L343.662,29.7775L343.343,31.5165L344.331,31.5165L343.725,34.6254C343.612,35.2166 343.565,35.6451 343.565,36.0767C343.565,37.0494 344.219,37.7532 345.592,37.7532C346.086,37.7532 346.659,37.6875 346.946,37.578L347.218,35.7733C347.012,35.8046 346.787,35.8046 346.58,35.8046C346.086,35.8046 345.927,35.5356 345.927,35.1509C345.927,34.8819 345.989,34.4816 346.055,34.1625L346.58,31.5165L348.238,31.5165L348.573,29.7775L346.915,29.7775L347.331,27.5912L344.985,28.1323Z" style="fill:rgb(105,94,81);fill-rule:nonzero;"/>
            </g>
            <g>
                <path d="M350.759,37.578L352.242,29.7775L349.946,29.7775L348.463,37.578L350.759,37.578ZM351.381,28.8047C352.116,28.8047 352.739,28.3262 352.739,27.5099C352.739,26.8249 352.26,26.3776 351.588,26.3776C350.887,26.3776 350.28,26.9062 350.265,27.6881C350.265,28.3731 350.743,28.8047 351.381,28.8047Z" style="fill:rgb(105,94,81);fill-rule:nonzero;"/>
            </g>
            <g>
                <path d="M357.618,29.6023C354.844,29.6023 352.961,31.8167 352.961,34.5285C352.961,36.4614 354.284,37.7532 356.264,37.7532C358.976,37.7532 360.921,35.6638 360.921,32.8082C360.921,31.0379 359.707,29.6023 357.618,29.6023ZM357.315,31.3382C358.24,31.3382 358.544,32.1045 358.544,32.8239C358.544,34.1625 357.843,35.9985 356.583,35.9985C355.785,35.9985 355.338,35.3917 355.338,34.4816C355.322,33.2711 355.992,31.3382 357.315,31.3382Z" style="fill:rgb(105,94,81);fill-rule:nonzero;"/>
            </g>
            <g>
                <path d="M363.902,37.578L364.558,34.1156C364.878,32.3922 365.753,31.4508 366.504,31.4508C367.076,31.4508 367.27,31.8355 367.27,32.3766C367.27,32.6644 367.236,32.9834 367.189,33.2524L366.376,37.578L368.671,37.578L369.535,33.0459C369.597,32.6644 369.663,32.0732 369.663,31.7229C369.663,30.3811 368.944,29.6023 367.667,29.6023C366.632,29.6023 365.656,30.0465 364.924,31.0692L364.893,31.0692L365.053,29.7775L363.01,29.7775C362.913,30.4624 362.785,31.3226 362.594,32.3141L361.606,37.578L363.902,37.578Z" style="fill:rgb(105,94,81);fill-rule:nonzero;"/>
            </g>
        </g>
    </g>
    <defs>
        <linearGradient id="tag1" x1="0" y1="0" x2="1" y2="0" gradientUnits="userSpaceOnUse" gradientTransform="matrix(228.41,0,0,228.41,153.059,23.3221)"><stop offset="0%" style="stop-color:rgb(254,254,254);stop-opacity:1"/><stop offset="90%" style="stop-color:rgb(38,38,38);stop-opacity:1"/><stop offset="100%" style="stop-color:black;stop-opacity:1"/></linearGradient>
        <linearGradient id="tag2" x1="0" y1="0" x2="1" y2="0" gradientUnits="userSpaceOnUse" gradientTransform="matrix(228.41,0,0,228.41,153.059,23.3221)"><stop offset="0%" style="stop-color:rgb(254,254,254);stop-opacity:1"/><stop offset="90%" style="stop-color:rgb(38,38,38);stop-opacity:1"/><stop offset="100%" style="stop-color:black;stop-opacity:1"/></linearGradient>
        <linearGradient id="tag3" x1="0" y1="0" x2="1" y2="0" gradientUnits="userSpaceOnUse" gradientTransform="matrix(228.41,0,0,228.41,153.059,23.3221)"><stop offset="0%" style="stop-color:rgb(254,254,254);stop-opacity:1"/><stop offset="90%" style="stop-color:rgb(38,38,38);stop-opacity:1"/><stop offset="100%" style="stop-color:black;stop-opacity:1"/></linearGradient>
        <linearGradient id="tag4" x1="0" y1="0" x2="1" y2="0" gradientUnits="userSpaceOnUse" gradientTransform="matrix(228.41,0,0,228.41,153.059,23.3221)"><stop offset="0%" style="stop-color:rgb(254,254,254);stop-opacity:1"/><stop offset="90%" style="stop-color:rgb(38,38,38);stop-opacity:1"/><stop offset="100%" style="stop-color:black;stop-opacity:1"/></linearGradient>
        <linearGradient id="tag5" x1="0" y1="0" x2="1" y2="0" gradientUnits="userSpaceOnUse" gradientTransform="matrix(228.41,0,0,228.41,153.059,23.3221)"><stop offset="0%" style="stop-color:rgb(254,254,254);stop-opacity:1"/><stop offset="90%" style="stop-color:rgb(38,38,38);stop-opacity:1"/><stop offset="100%" style="stop-color:black;stop-opacity:1"/></linearGradient>
        <linearGradient id="tag6" x1="0" y1="0" x2="1" y2="0" gradientUnits="userSpaceOnUse" gradientTransform="matrix(228.41,0,0,228.41,153.059,23.3221)"><stop offset="0%" style="stop-color:rgb(254,254,254);stop-opacity:1"/><stop offset="90%" style="stop-color:rgb(38,38,38);stop-opacity:1"/><stop offset="100%" style="stop-color:black;stop-opacity:1"/></linearGradient>
        <linearGradient id="tag7" x1="0" y1="0" x2="1" y2="0" gradientUnits="userSpaceOnUse" gradientTransform="matrix(228.41,0,0,228.41,153.059,23.3221)"><stop offset="0%" style="stop-color:rgb(254,254,254);stop-opacity:1"/><stop offset="90%" style="stop-color:rgb(38,38,38);stop-opacity:1"/><stop offset="100%" style="stop-color:black;stop-opacity:1"/></linearGradient>
        <linearGradient id="tag8" x1="0" y1="0" x2="1" y2="0" gradientUnits="userSpaceOnUse" gradientTransform="matrix(228.41,0,0,228.41,153.059,23.3221)"><stop offset="0%" style="stop-color:rgb(254,254,254);stop-opacity:1"/><stop offset="90%" style="stop-color:rgb(38,38,38);stop-opacity:1"/><stop offset="100%" style="stop-color:black;stop-opacity:1"/></linearGradient>
        <linearGradient id="tag9" x1="0" y1="0" x2="1" y2="0" gradientUnits="userSpaceOnUse" gradientTransform="matrix(228.41,0,0,228.41,153.059,23.3221)"><stop offset="0%" style="stop-color:rgb(254,254,254);stop-opacity:1"/><stop offset="90%" style="stop-color:rgb(38,38,38);stop-opacity:1"/><stop offset="100%" style="stop-color:black;stop-opacity:1"/></linearGradient>
        <linearGradient id="tag10" x1="0" y1="0" x2="1" y2="0" gradientUnits="userSpaceOnUse" gradientTransform="matrix(228.41,0,0,228.41,153.059,23.3221)"><stop offset="0%" style="stop-color:rgb(254,254,254);stop-opacity:1"/><stop offset="90%" style="stop-color:rgb(38,38,38);stop-opacity:1"/><stop offset="100%" style="stop-color:black;stop-opacity:1"/></linearGradient>
        <linearGradient id="tag11" x1="0" y1="0" x2="1" y2="0" gradientUnits="userSpaceOnUse" gradientTransform="matrix(228.41,0,0,228.41,153.059,23.3221)"><stop offset="0%" style="stop-color:rgb(254,254,254);stop-opacity:1"/><stop offset="90%" style="stop-color:rgb(38,38,38);stop-opacity:1"/><stop offset="100%" style="stop-color:black;stop-opacity:1"/></linearGradient>
        <linearGradient id="tag12" x1="0" y1="0" x2="1" y2="0" gradientUnits="userSpaceOnUse" gradientTransform="matrix(228.41,0,0,228.41,153.059,23.3221)"><stop offset="0%" style="stop-color:rgb(254,254,254);stop-opacity:1"/><stop offset="90%" style="stop-color:rgb(38,38,38);stop-opacity:1"/><stop offset="100%" style="stop-color:black;stop-opacity:1"/></linearGradient>
        <linearGradient id="tag13" x1="0" y1="0" x2="1" y2="0" gradientUnits="userSpaceOnUse" gradientTransform="matrix(228.41,0,0,228.41,153.059,23.3221)"><stop offset="0%" style="stop-color:rgb(254,254,254);stop-opacity:1"/><stop offset="90%" style="stop-color:rgb(38,38,38);stop-opacity:1"/><stop offset="100%" style="stop-color:black;stop-opacity:1"/></linearGradient>
        <linearGradient id="tag14" x1="0" y1="0" x2="1" y2="0" gradientUnits="userSpaceOnUse" gradientTransform="matrix(228.41,0,0,228.41,153.059,23.3221)"><stop offset="0%" style="stop-color:rgb(254,254,254);stop-opacity:1"/><stop offset="90%" style="stop-color:rgb(38,38,38);stop-opacity:1"/><stop offset="100%" style="stop-color:black;stop-opacity:1"/></linearGradient>
        <linearGradient id="tag15" x1="0" y1="0" x2="1" y2="0" gradientUnits="userSpaceOnUse" gradientTransform="matrix(228.41,0,0,228.41,153.059,23.3221)"><stop offset="0%" style="stop-color:rgb(254,254,254);stop-opacity:1"/><stop offset="90%" style="stop-color:rgb(38,38,38);stop-opacity:1"/><stop offset="100%" style="stop-color:black;stop-opacity:1"/></linearGradient>
        <linearGradient id="tag16" x1="0" y1="0" x2="1" y2="0" gradientUnits="userSpaceOnUse" gradientTransform="matrix(228.41,0,0,228.41,153.059,23.3221)"><stop offset="0%" style="stop-color:rgb(254,254,254);stop-opacity:1"/><stop offset="90%" style="stop-color:rgb(38,38,38);stop-opacity:1"/><stop offset="100%" style="stop-color:black;stop-opacity:1"/></linearGradient>
        <linearGradient id="tag17" x1="0" y1="0" x2="1" y2="0" gradientUnits="userSpaceOnUse" gradientTransform="matrix(228.41,0,0,228.41,153.059,23.3221)"><stop offset="0%" style="stop-color:rgb(254,254,254);stop-opacity:1"/><stop offset="90%" style="stop-color:rgb(38,38,38);stop-opacity:1"/><stop offset="100%" style="stop-color:black;stop-opacity:1"/></linearGradient>
        <linearGradient id="tag18" x1="0" y1="0" x2="1" y2="0" gradientUnits="userSpaceOnUse" gradientTransform="matrix(228.41,0,0,228.41,153.059,23.3221)"><stop offset="0%" style="stop-color:rgb(254,254,254);stop-opacity:1"/><stop offset="90%" style="stop-color:rgb(38,38,38);stop-opacity:1"/><stop offset="100%" style="stop-color:black;stop-opacity:1"/></linearGradient>
        <linearGradient id="tag19" x1="0" y1="0" x2="1" y2="0" gradientUnits="userSpaceOnUse" gradientTransform="matrix(228.41,0,0,228.41,153.059,23.3221)"><stop offset="0%" style="stop-color:rgb(254,254,254);stop-opacity:1"/><stop offset="90%" style="stop-color:rgb(38,38,38);stop-opacity:1"/><stop offset="100%" style="stop-color:black;stop-opacity:1"/></linearGradient>
        <linearGradient id="tag20" x1="0" y1="0" x2="1" y2="0" gradientUnits="userSpaceOnUse" gradientTransform="matrix(228.41,0,0,228.41,153.059,23.3221)"><stop offset="0%" style="stop-color:rgb(254,254,254);stop-opacity:1"/><stop offset="90%" style="stop-color:rgb(38,38,38);stop-opacity:1"/><stop offset="100%" style="stop-color:black;stop-opacity:1"/></linearGradient>
        <linearGradient id="tag21" x1="0" y1="0" x2="1" y2="0" gradientUnits="userSpaceOnUse" gradientTransform="matrix(228.41,0,0,228.41,153.059,23.3221)"><stop offset="0%" style="stop-color:rgb(254,254,254);stop-opacity:1"/><stop offset="90%" style="stop-color:rgb(38,38,38);stop-opacity:1"/><stop offset="100%" style="stop-color:black;stop-opacity:1"/></linearGradient>
        <linearGradient id="tag22" x1="0" y1="0" x2="1" y2="0" gradientUnits="userSpaceOnUse" gradientTransform="matrix(228.41,0,0,228.41,153.059,23.3221)"><stop offset="0%" style="stop-color:rgb(254,254,254);stop-opacity:1"/><stop offset="90%" style="stop-color:rgb(38,38,38);stop-opacity:1"/><stop offset="100%" style="stop-color:black;stop-opacity:1"/></linearGradient>
        <linearGradient id="tag23" x1="0" y1="0" x2="1" y2="0" gradientUnits="userSpaceOnUse" gradientTransform="matrix(228.41,0,0,228.41,153.059,23.3221)"><stop offset="0%" style="stop-color:rgb(254,254,254);stop-opacity:1"/><stop offset="90%" style="stop-color:rgb(38,38,38);stop-opacity:1"/><stop offset="100%" style="stop-color:black;stop-opacity:1"/></linearGradient>
        <linearGradient id="tag24" x1="0" y1="0" x2="1" y2="0" gradientUnits="userSpaceOnUse" gradientTransform="matrix(228.41,0,0,228.41,153.059,23.3221)"><stop offset="0%" style="stop-color:rgb(254,254,254);stop-opacity:1"/><stop offset="90%" style="stop-color:rgb(38,38,38);stop-opacity:1"/><stop offset="100%" style="stop-color:black;stop-opacity:1"/></linearGradient>
        <linearGradient id="tag25" x1="0" y1="0" x2="1" y2="0" gradientUnits="userSpaceOnUse" gradientTransform="matrix(228.41,0,0,228.41,153.059,23.3221)"><stop offset="0%" style="stop-color:rgb(254,254,254);stop-opacity:1"/><stop offset="90%" style="stop-color:rgb(38,38,38);stop-opacity:1"/><stop offset="100%" style="stop-color:black;stop-opacity:1"/></linearGradient>
        <linearGradient id="tag26" x1="0" y1="0" x2="1" y2="0" gradientUnits="userSpaceOnUse" gradientTransform="matrix(228.41,0,0,228.41,153.059,23.3221)"><stop offset="0%" style="stop-color:rgb(254,254,254);stop-opacity:1"/><stop offset="90%" style="stop-color:rgb(38,38,38);stop-opacity:1"/><stop offset="100%" style="stop-color:black;stop-opacity:1"/></linearGradient>
        <linearGradient id="tag27" x1="0" y1="0" x2="1" y2="0" gradientUnits="userSpaceOnUse" gradientTransform="matrix(228.41,0,0,228.41,153.059,23.3221)"><stop offset="0%" style="stop-color:rgb(254,254,254);stop-opacity:1"/><stop offset="90%" style="stop-color:rgb(38,38,38);stop-opacity:1"/><stop offset="100%" style="stop-color:black;stop-opacity:1"/></linearGradient>
        <linearGradient id="tag28" x1="0" y1="0" x2="1" y2="0" gradientUnits="userSpaceOnUse" gradientTransform="matrix(228.41,0,0,228.41,153.059,23.3221)"><stop offset="0%" style="stop-color:rgb(254,254,254);stop-opacity:1"/><stop offset="90%" style="stop-color:rgb(38,38,38);stop-opacity:1"/><stop offset="100%" style="stop-color:black;stop-opacity:1"/></linearGradient>
        <linearGradient id="tag29" x1="0" y1="0" x2="1" y2="0" gradientUnits="userSpaceOnUse" gradientTransform="matrix(228.41,0,0,228.41,153.059,23.3221)"><stop offset="0%" style="stop-color:rgb(254,254,254);stop-opacity:1"/><stop offset="90%" style="stop-color:rgb(38,38,38);stop-opacity:1"/><stop offset="100%" style="stop-color:black;stop-opacity:1"/></linearGradient>
        <linearGradient id="tag30" x1="0" y1="0" x2="1" y2="0" gradientUnits="userSpaceOnUse" gradientTransform="matrix(228.41,0,0,228.41,153.059,23.3221)"><stop offset="0%" style="stop-color:rgb(254,254,254);stop-opacity:1"/><stop offset="90%" style="stop-color:rgb(38,38,38);stop-opacity:1"/><stop offset="100%" style="stop-color:black;stop-opacity:1"/></linearGradient>
        <linearGradient id="tag31" x1="0" y1="0" x2="1" y2="0" gradientUnits="userSpaceOnUse" gradientTransform="matrix(228.41,0,0,228.41,153.059,23.3221)"><stop offset="0%" style="stop-color:rgb(254,254,254);stop-opacity:1"/><stop offset="90%" style="stop-color:rgb(38,38,38);stop-opacity:1"/><stop offset="100%" style="stop-color:black;stop-opacity:1"/></linearGradient>
        <linearGradient id="tag32" x1="0" y1="0" x2="1" y2="0" gradientUnits="userSpaceOnUse" gradientTransform="matrix(228.41,0,0,228.41,153.059,23.3221)"><stop offset="0%" style="stop-color:rgb(254,254,254);stop-opacity:1"/><stop offset="90%" style="stop-color:rgb(38,38,38);stop-opacity:1"/><stop offset="100%" style="stop-color:black;stop-opacity:1"/></linearGradient>
        <linearGradient id="tag33" x1="0" y1="0" x2="1" y2="0" gradientUnits="userSpaceOnUse" gradientTransform="matrix(228.41,0,0,228.41,153.059,23.3221)"><stop offset="0%" style="stop-color:rgb(254,254,254);stop-opacity:1"/><stop offset="90%" style="stop-color:rgb(38,38,38);stop-opacity:1"/><stop offset="100%" style="stop-color:black;stop-opacity:1"/></linearGradient>
        <linearGradient id="tag34" x1="0" y1="0" x2="1" y2="0" gradientUnits="userSpaceOnUse" gradientTransform="matrix(228.41,0,0,228.41,153.059,23.3221)"><stop offset="0%" style="stop-color:rgb(254,254,254);stop-opacity:1"/><stop offset="90%" style="stop-color:rgb(38,38,38);stop-opacity:1"/><stop offset="100%" style="stop-color:black;stop-opacity:1"/></linearGradient>
        <linearGradient id="tag35" x1="0" y1="0" x2="1" y2="0" gradientUnits="userSpaceOnUse" gradientTransform="matrix(228.41,0,0,228.41,153.059,23.3221)"><stop offset="0%" style="stop-color:rgb(254,254,254);stop-opacity:1"/><stop offset="90%" style="stop-color:rgb(38,38,38);stop-opacity:1"/><stop offset="100%" style="stop-color:black;stop-opacity:1"/></linearGradient>
        <linearGradient id="tag36" x1="0" y1="0" x2="1" y2="0" gradientUnits="userSpaceOnUse" gradientTransform="matrix(228.41,0,0,228.41,153.059,23.3221)"><stop offset="0%" style="stop-color:rgb(254,254,254);stop-opacity:1"/><stop offset="90%" style="stop-color:rgb(38,38,38);stop-opacity:1"/><stop offset="100%" style="stop-color:black;stop-opacity:1"/></linearGradient>
        <linearGradient id="tag37" x1="0" y1="0" x2="1" y2="0" gradientUnits="userSpaceOnUse" gradientTransform="matrix(-228.41,0,0,228.41,436.227,23.3221)"><stop offset="0%" style="stop-color:rgb(254,254,254);stop-opacity:1"/><stop offset="90%" style="stop-color:rgb(38,38,38);stop-opacity:1"/><stop offset="100%" style="stop-color:black;stop-opacity:1"/></linearGradient>
        <linearGradient id="tag38" x1="0" y1="0" x2="1" y2="0" gradientUnits="userSpaceOnUse" gradientTransform="matrix(228.41,0,0,228.41,153.059,23.3221)"><stop offset="0%" style="stop-color:rgb(254,254,254);stop-opacity:1"/><stop offset="90%" style="stop-color:rgb(38,38,38);stop-opacity:1"/><stop offset="100%" style="stop-color:black;stop-opacity:1"/></linearGradient>
        <linearGradient id="tag39" x1="0" y1="0" x2="1" y2="0" gradientUnits="userSpaceOnUse" gradientTransform="matrix(228.41,0,0,228.41,153.059,23.3221)"><stop offset="0%" style="stop-color:rgb(254,254,254);stop-opacity:1"/><stop offset="90%" style="stop-color:rgb(38,38,38);stop-opacity:1"/><stop offset="100%" style="stop-color:black;stop-opacity:1"/></linearGradient>
        <linearGradient id="tag40" x1="0" y1="0" x2="1" y2="0" gradientUnits="userSpaceOnUse" gradientTransform="matrix(228.41,0,0,228.41,153.059,23.3221)"><stop offset="0%" style="stop-color:rgb(254,254,254);stop-opacity:1"/><stop offset="90%" style="stop-color:rgb(38,38,38);stop-opacity:1"/><stop offset="100%" style="stop-color:black;stop-opacity:1"/></linearGradient>
        <linearGradient id="tag41" x1="0" y1="0" x2="1" y2="0" gradientUnits="userSpaceOnUse" gradientTransform="matrix(228.41,0,0,228.41,153.059,23.3221)"><stop offset="0%" style="stop-color:rgb(254,254,254);stop-opacity:1"/><stop offset="90%" style="stop-color:rgb(38,38,38);stop-opacity:1"/><stop offset="100%" style="stop-color:black;stop-opacity:1"/></linearGradient>
        <linearGradient id="tag42" x1="0" y1="0" x2="1" y2="0" gradientUnits="userSpaceOnUse" gradientTransform="matrix(228.41,0,0,228.41,153.059,23.3221)"><stop offset="0%" style="stop-color:rgb(254,254,254);stop-opacity:1"/><stop offset="90%" style="stop-color:rgb(38,38,38);stop-opacity:1"/><stop offset="100%" style="stop-color:black;stop-opacity:1"/></linearGradient>
        <linearGradient id="tag43" x1="0" y1="0" x2="1" y2="0" gradientUnits="userSpaceOnUse" gradientTransform="matrix(228.41,0,0,228.41,153.059,23.3221)"><stop offset="0%" style="stop-color:rgb(254,254,254);stop-opacity:1"/><stop offset="90%" style="stop-color:rgb(38,38,38);stop-opacity:1"/><stop offset="100%" style="stop-color:black;stop-opacity:1"/></linearGradient>
        <linearGradient id="tag44" x1="0" y1="0" x2="1" y2="0" gradientUnits="userSpaceOnUse" gradientTransform="matrix(228.41,0,0,228.41,153.059,23.3221)"><stop offset="0%" style="stop-color:rgb(254,254,254);stop-opacity:1"/><stop offset="90%" style="stop-color:rgb(38,38,38);stop-opacity:1"/><stop offset="100%" style="stop-color:black;stop-opacity:1"/></linearGradient>
        <linearGradient id="tag45" x1="0" y1="0" x2="1" y2="0" gradientUnits="userSpaceOnUse" gradientTransform="matrix(228.41,0,0,228.41,153.059,23.3221)"><stop offset="0%" style="stop-color:rgb(254,254,254);stop-opacity:1"/><stop offset="90%" style="stop-color:rgb(38,38,38);stop-opacity:1"/><stop offset="100%" style="stop-color:black;stop-opacity:1"/></linearGradient>
        <linearGradient id="tag46" x1="0" y1="0" x2="1" y2="0" gradientUnits="userSpaceOnUse" gradientTransform="matrix(228.41,0,0,228.41,153.059,23.3221)"><stop offset="0%" style="stop-color:rgb(254,254,254);stop-opacity:1"/><stop offset="90%" style="stop-color:rgb(38,38,38);stop-opacity:1"/><stop offset="100%" style="stop-color:black;stop-opacity:1"/></linearGradient>
        <linearGradient id="tag47" x1="0" y1="0" x2="1" y2="0" gradientUnits="userSpaceOnUse" gradientTransform="matrix(228.41,0,0,228.41,153.059,23.3221)"><stop offset="0%" style="stop-color:rgb(254,254,254);stop-opacity:1"/><stop offset="90%" style="stop-color:rgb(38,38,38);stop-opacity:1"/><stop offset="100%" style="stop-color:black;stop-opacity:1"/></linearGradient>
    </defs>
<style xmlns="http://www.w3.org/1999/xhtml" charset="utf-8" type="text/css" class="firebugResetStyles">/* See license.txt for terms of usage */
/** reset styling **/
.firebugResetStyles {
    z-index: 2147483646 !important;
    top: 0 !important;
    left: 0 !important;
    display: block !important;
    border: 0 none !important;
    margin: 0 !important;
    padding: 0 !important;
    outline: 0 !important;
    min-width: 0 !important;
    max-width: none !important;
    min-height: 0 !important;
    max-height: none !important;
    position: fixed !important;
    transform: rotate(0deg) !important;
    transform-origin: 50% 50% !important;
    border-radius: 0 !important;
    box-shadow: none !important;
    background: transparent none !important;
    pointer-events: none !important;
    white-space: normal !important;
}
style.firebugResetStyles {
    display: none !important;
}

.firebugBlockBackgroundColor {
    background-color: transparent !important;
}

.firebugResetStyles:before, .firebugResetStyles:after {
    content: "" !important;
}
/**actual styling to be modified by firebug theme**/
.firebugCanvas {
    display: none !important;
}

/* * * * * * * * * * * * * * * * * * * * * * * * * * * * * * * * * * * * * * * * * * * * * * * * */
.firebugLayoutBox {
    width: auto !important;
    position: static !important;
}

.firebugLayoutBoxOffset {
    opacity: 0.8 !important;
    position: fixed !important;
}

.firebugLayoutLine {
    opacity: 0.4 !important;
    background-color: #000000 !important;
}

.firebugLayoutLineLeft, .firebugLayoutLineRight {
    width: 1px !important;
    height: 100% !important;
}

.firebugLayoutLineTop, .firebugLayoutLineBottom {
    width: 100% !important;
    height: 1px !important;
}

.firebugLayoutLineTop {
    margin-top: -1px !important;
    border-top: 1px solid #999999 !important;
}

.firebugLayoutLineRight {
    border-right: 1px solid #999999 !important;
}

.firebugLayoutLineBottom {
    border-bottom: 1px solid #999999 !important;
}

.firebugLayoutLineLeft {
    margin-left: -1px !important;
    border-left: 1px solid #999999 !important;
}

/* * * * * * * * * * * * * * * * * * * * * * * * * * * * * * * * * * * * * * * * * * * * * * * * */
.firebugLayoutBoxParent {
    border-top: 0 none !important;
    border-right: 1px dashed #E00 !important;
    border-bottom: 1px dashed #E00 !important;
    border-left: 0 none !important;
    position: fixed !important;
    width: auto !important;
}

.firebugRuler{
    position: absolute !important;
}

.firebugRulerH {
    top: -15px !important;
    left: 0 !important;
    width: 100% !important;
    height: 14px !important;
    background: url("data:image/png,%89PNG%0D%0A%1A%0A%00%00%00%0DIHDR%00%00%13%88%00%00%00%0E%08%02%00%00%00L%25a%0A%00%00%00%04gAMA%00%00%D6%D8%D4OX2%00%00%00%19tEXtSoftware%00Adobe%20ImageReadyq%C9e%3C%00%00%04%F8IDATx%DA%EC%DD%D1n%E2%3A%00E%D1%80%F8%FF%EF%E2%AF2%95%D0D4%0E%C1%14%B0%8Fa-%E9%3E%CC%9C%87n%B9%81%A6W0%1C%A6i%9A%E7y%0As8%1CT%A9R%A5J%95*U%AAT%A9R%A5J%95*U%AAT%A9R%A5J%95*U%AAT%A9R%A5J%95*U%AAT%A9R%A5J%95*U%AAT%A9R%A5J%95*U%AAT%A9R%A5J%95*U%AATE9%FE%FCw%3E%9F%AF%2B%2F%BA%97%FDT%1D~K(%5C%9D%D5%EA%1B%5C%86%B5%A9%BDU%B5y%80%ED%AB*%03%FAV9%AB%E1%CEj%E7%82%EF%FB%18%BC%AEJ8%AB%FA'%D2%BEU9%D7U%ECc0%E1%A2r%5DynwVi%CFW%7F%BB%17%7Dy%EACU%CD%0E%F0%FA%3BX%FEbV%FEM%9B%2B%AD%BE%AA%E5%95v%AB%AA%E3E5%DCu%15rV9%07%B5%7F%B5w%FCm%BA%BE%AA%FBY%3D%14%F0%EE%C7%60%0EU%AAT%A9R%A5J%95*U%AAT%A9R%A5J%95*U%AAT%A9R%A5J%95*U%AAT%A9R%A5J%95*U%AAT%A9R%A5JU%88%D3%F5%1F%AE%DF%3B%1B%F2%3E%DAUCNa%F92%D02%AC%7Dm%F9%3A%D4%F2%8B6%AE*%BF%5C%C2Ym~9g5%D0Y%95%17%7C%C8c%B0%7C%18%26%9CU%CD%13i%F7%AA%90%B3Z%7D%95%B4%C7%60%E6E%B5%BC%05%B4%FBY%95U%9E%DB%FD%1C%FC%E0%9F%83%7F%BE%17%7DkjMU%E3%03%AC%7CWj%DF%83%9An%BCG%AE%F1%95%96yQ%0Dq%5Dy%00%3Et%B5'%FC6%5DS%95pV%95%01%81%FF'%07%00%00%00%00%00%00%00%00%00%F8x%C7%F0%BE%9COp%5D%C9%7C%AD%E7%E6%EBV%FB%1E%E0(%07%E5%AC%C6%3A%ABi%9C%8F%C6%0E9%AB%C0'%D2%8E%9F%F99%D0E%B5%99%14%F5%0D%CD%7F%24%C6%DEH%B8%E9rV%DFs%DB%D0%F7%00k%FE%1D%84%84%83J%B8%E3%BA%FB%EF%20%84%1C%D7%AD%B0%8E%D7U%C8Y%05%1E%D4t%EF%AD%95Q%BF8w%BF%E9%0A%BF%EB%03%00%00%00%00%00%00%00%00%00%B8vJ%8E%BB%F5%B1u%8Cx%80%E1o%5E%CA9%AB%CB%CB%8E%03%DF%1D%B7T%25%9C%D5(%EFJM8%AB%CC'%D2%B2*%A4s%E7c6%FB%3E%FA%A2%1E%80~%0E%3E%DA%10x%5D%95Uig%15u%15%ED%7C%14%B6%87%A1%3B%FCo8%A8%D8o%D3%ADO%01%EDx%83%1A~%1B%9FpP%A3%DC%C6'%9C%95gK%00%00%00%00%00%00%00%00%00%20%D9%C9%11%D0%C0%40%AF%3F%EE%EE%92%94%D6%16X%B5%BCMH%15%2F%BF%D4%A7%C87%F1%8E%F2%81%AE%AAvzr%DA2%ABV%17%7C%E63%83%E7I%DC%C6%0Bs%1B%EF6%1E%00%00%00%00%00%00%00%00%00%80cr%9CW%FF%7F%C6%01%0E%F1%CE%A5%84%B3%CA%BC%E0%CB%AA%84%CE%F9%BF)%EC%13%08WU%AE%AB%B1%AE%2BO%EC%8E%CBYe%FE%8CN%ABr%5Dy%60~%CFA%0D%F4%AE%D4%BE%C75%CA%EDVB%EA(%B7%F1%09g%E5%D9%12%00%00%00%00%00%00%00%00%00H%F6%EB%13S%E7y%5E%5E%FB%98%F0%22%D1%B2'%A7%F0%92%B1%BC%24z3%AC%7Dm%60%D5%92%B4%7CEUO%5E%F0%AA*%3BU%B9%AE%3E%A0j%94%07%A0%C7%A0%AB%FD%B5%3F%A0%F7%03T%3Dy%D7%F7%D6%D4%C0%AAU%D2%E6%DFt%3F%A8%CC%AA%F2%86%B9%D7%F5%1F%18%E6%01%F8%CC%D5%9E%F0%F3z%88%AA%90%EF%20%00%00%00%00%00%00%00%00%00%C0%A6%D3%EA%CFi%AFb%2C%7BB%0A%2B%C3%1A%D7%06V%D5%07%A8r%5D%3D%D9%A6%CAu%F5%25%CF%A2%99%97zNX%60%95%AB%5DUZ%D5%FBR%03%AB%1C%D4k%9F%3F%BB%5C%FF%81a%AE%AB'%7F%F3%EA%FE%F3z%94%AA%D8%DF%5B%01%00%00%00%00%00%00%00%00%00%8E%FB%F3%F2%B1%1B%8DWU%AAT%A9R%A5J%95*U%AAT%A9R%A5J%95*U%AAT%A9R%A5J%95*U%AAT%A9R%A5J%95*U%AAT%A9R%A5J%95*U%AAT%A9R%A5J%95*U%AAT%A9R%A5J%95*UiU%C7%BBe%E7%F3%B9%CB%AAJ%95*U%AAT%A9R%A5J%95*U%AAT%A9R%A5J%95*U%AAT%A9R%A5J%95*U%AAT%A9R%A5J%95*U%AAT%A9R%A5J%95*U%AAT%A9R%A5J%95*U%AAT%A9R%A5*%AAj%FD%C6%D4%5Eo%90%B5Z%ADV%AB%D5j%B5Z%ADV%AB%D5j%B5Z%ADV%AB%D5j%B5Z%ADV%AB%D5j%B5Z%ADV%AB%D5j%B5Z%ADV%AB%D5j%B5Z%ADV%AB%D5j%B5%86%AF%1B%9F%98%DA%EBm%BBV%AB%D5j%B5Z%ADV%AB%D5j%B5Z%ADV%AB%D5j%B5Z%ADV%AB%D5j%B5Z%ADV%AB%D5j%B5Z%ADV%AB%D5j%B5Z%ADV%AB%D5j%B5Z%AD%D6%E4%F58%01%00%00%00%00%00%00%00%00%00%00%00%00%00%40%85%7F%02%0C%008%C2%D0H%16j%8FX%00%00%00%00IEND%AEB%60%82") repeat-x !important;
    border-top: 1px solid #BBBBBB !important;
    border-right: 1px dashed #BBBBBB !important;
    border-bottom: 1px solid #000000 !important;
}

.firebugRulerV {
    top: 0 !important;
    left: -15px !important;
    width: 14px !important;
    height: 100% !important;
    background: url("data:image/png,%89PNG%0D%0A%1A%0A%00%00%00%0DIHDR%00%00%00%0E%00%00%13%88%08%02%00%00%00%0E%F5%CB%10%00%00%00%04gAMA%00%00%D6%D8%D4OX2%00%00%00%19tEXtSoftware%00Adobe%20ImageReadyq%C9e%3C%00%00%06~IDATx%DA%EC%DD%D1v%A20%14%40Qt%F1%FF%FF%E4%97%D9%07%3BT%19%92%DC%40(%90%EEy%9A5%CB%B6%E8%F6%9Ac%A4%CC0%84%FF%DC%9E%CF%E7%E3%F1%88%DE4%F8%5D%C7%9F%2F%BA%DD%5E%7FI%7D%F18%DDn%BA%C5%FB%DF%97%BFk%F2%10%FF%FD%B4%F2M%A7%FB%FD%FD%B3%22%07p%8F%3F%AE%E3%F4S%8A%8F%40%EEq%9D%BE8D%F0%0EY%A1Uq%B7%EA%1F%81%88V%E8X%3F%B4%CEy%B7h%D1%A2E%EBohU%FC%D9%AF2fO%8BBeD%BE%F7X%0C%97%A4%D6b7%2Ck%A5%12%E3%9B%60v%B7r%C7%1AI%8C%BD%2B%23r%00c0%B2v%9B%AD%CA%26%0C%1Ek%05A%FD%93%D0%2B%A1u%8B%16-%95q%5Ce%DCSO%8E%E4M%23%8B%F7%C2%FE%40%BB%BD%8C%FC%8A%B5V%EBu%40%F9%3B%A72%FA%AE%8C%D4%01%CC%B5%DA%13%9CB%AB%E2I%18%24%B0n%A9%0CZ*Ce%9C%A22%8E%D8NJ%1E%EB%FF%8F%AE%CAP%19*%C3%BAEKe%AC%D1%AAX%8C*%DEH%8F%C5W%A1e%AD%D4%B7%5C%5B%19%C5%DB%0D%EF%9F%19%1D%7B%5E%86%BD%0C%95%A12%AC%5B*%83%96%CAP%19%F62T%86%CAP%19*%83%96%CA%B8Xe%BC%FE)T%19%A1%17xg%7F%DA%CBP%19*%C3%BA%A52T%86%CAP%19%F62T%86%CA%B0n%A9%0CZ%1DV%C6%3D%F3%FCH%DE%B4%B8~%7F%5CZc%F1%D6%1F%AF%84%F9%0F6%E6%EBVt9%0E~%BEr%AF%23%B0%97%A12T%86%CAP%19%B4T%86%CA%B8Re%D8%CBP%19*%C3%BA%A52huX%19%AE%CA%E5%BC%0C%7B%19*CeX%B7h%A9%0C%95%E1%BC%0C%7B%19*CeX%B7T%06%AD%CB%5E%95%2B%BF.%8F%C5%97%D5%E4%7B%EE%82%D6%FB%CF-%9C%FD%B9%CF%3By%7B%19%F62T%86%CA%B0n%D1R%19*%A3%D3%CA%B0%97%A12T%86uKe%D0%EA%B02*%3F1%99%5DB%2B%A4%B5%F8%3A%7C%BA%2B%8Co%7D%5C%EDe%A8%0C%95a%DDR%19%B4T%C66%82fA%B2%ED%DA%9FC%FC%17GZ%06%C9%E1%B3%E5%2C%1A%9FoiB%EB%96%CA%A0%D5qe4%7B%7D%FD%85%F7%5B%ED_%E0s%07%F0k%951%ECr%0D%B5C%D7-g%D1%A8%0C%EB%96%CA%A0%A52T%C6)*%C3%5E%86%CAP%19%D6-%95A%EB*%95q%F8%BB%E3%F9%AB%F6%E21%ACZ%B7%22%B7%9B%3F%02%85%CB%A2%5B%B7%BA%5E%B7%9C%97%E1%BC%0C%EB%16-%95%A12z%AC%0C%BFc%A22T%86uKe%D0%EA%B02V%DD%AD%8A%2B%8CWhe%5E%AF%CF%F5%3B%26%CE%CBh%5C%19%CE%CB%B0%F3%A4%095%A1%CAP%19*Ce%A8%0C%3BO*Ce%A8%0C%95%A12%3A%AD%8C%0A%82%7B%F0v%1F%2FD%A9%5B%9F%EE%EA%26%AF%03%CA%DF9%7B%19*Ce%A8%0C%95%A12T%86%CA%B8Ze%D8%CBP%19*Ce%A8%0C%95%D1ae%EC%F7%89I%E1%B4%D7M%D7P%8BjU%5C%BB%3E%F2%20%D8%CBP%19*Ce%A8%0C%95%A12T%C6%D5*%C3%5E%86%CAP%19*Ce%B4O%07%7B%F0W%7Bw%1C%7C%1A%8C%B3%3B%D1%EE%AA%5C%D6-%EBV%83%80%5E%D0%CA%10%5CU%2BD%E07YU%86%CAP%19*%E3%9A%95%91%D9%A0%C8%AD%5B%EDv%9E%82%FFKOee%E4%8FUe%A8%0C%95%A12T%C6%1F%A9%8C%C8%3D%5B%A5%15%FD%14%22r%E7B%9F%17l%F8%BF%ED%EAf%2B%7F%CF%ECe%D8%CBP%19*Ce%A8%0C%95%E1%93~%7B%19%F62T%86%CAP%19*Ce%A8%0C%E7%13%DA%CBP%19*Ce%A8%0CZf%8B%16-Z%B4h%D1R%19f%8B%16-Z%B4h%D1R%19%B4%CC%16-Z%B4h%D1R%19%B4%CC%16-Z%B4h%D1%A2%A52%CC%16-Z%B4h%D1%A2%A52h%99-Z%B4h%D1%A2%A52h%99-Z%B4h%D1%A2EKe%98-Z%B4h%D1%A2EKe%D02%5B%B4h%D1%A2EKe%D02%5B%B4h%D1%A2E%8B%96%CA0%5B%B4h%D1%A2E%8B%96%CA%A0e%B6h%D1%A2E%8B%96%CA%A0e%B6h%D1%A2E%8B%16-%95a%B6h%D1%A2E%8B%16-%95A%CBl%D1%A2E%8B%16-%95A%CBl%D1%A2E%8B%16-Z*%C3l%D1%A2E%8B%16-Z*%83%96%D9%A2E%8B%16-Z*%83%96%D9%A2E%8B%16-Z%B4T%86%D9%A2E%8B%16-Z%B4T%06-%B3E%8B%16-Z%B4T%06-%B3E%8B%16-Z%B4h%A9%0C%B3E%8B%16-Z%B4h%A9%0CZf%8B%16-Z%B4h%A9%0CZf%8B%16-Z%B4h%D1R%19f%8B%16-Z%B4h%D1R%19%B4%CC%16-Z%B4h%D1R%19%B4%CC%16-Z%B4h%D1%A2%A52%CC%16-Z%B4h%D1%A2%A52h%99-Z%B4h%D1%A2%A52h%99-Z%B4h%D1%A2EKe%98-Z%B4h%D1%A2EKe%D02%5B%B4h%D1%A2EKe%D02%5B%B4h%D1%A2E%8B%96%CA0%5B%B4h%D1%A2E%8B%96%CA%A0e%B6h%D1%A2E%8B%96%CA%A0e%B6h%D1%A2E%8B%16-%95a%B6h%D1%A2E%8B%16-%95A%CBl%D1%A2E%8B%16-%95A%CBl%D1%A2E%8B%16-Z*%C3l%D1%A2E%8B%16-Z*%83%96%D9%A2E%8B%16-Z*%83%96%D9%A2E%8B%16-Z%B4T%86%D9%A2E%8B%16-Z%B4T%06-%B3E%8B%16-Z%B4T%06-%B3E%8B%16-Z%B4h%A9%0C%B3E%8B%16-Z%B4h%A9%0CZf%8B%16-Z%B4h%A9%0CZf%8B%16-Z%B4h%D1R%19f%8B%16-Z%B4h%D1R%19%B4%CC%16-Z%B4h%D1R%19%B4%CC%16-Z%B4h%D1%A2%A52%CC%16-Z%B4h%D1%A2%A52h%99-Z%B4h%D1%A2%A52h%99-Z%B4h%D1%A2EKe%98-Z%B4h%D1%A2EKe%D02%5B%B4h%D1%A2EKe%D02%5B%B4h%D1%A2E%8B%96%CA0%5B%B4h%D1%A2E%8B%96%CA%A0e%B6h%D1%A2E%8B%96%CA%A0e%B6h%D1%A2E%8B%16-%95a%B6h%D1%A2E%8B%16-%95A%CBl%D1%A2E%8B%16-%95A%CBl%D1%A2E%8B%16-Z*%C3l%D1%A2E%8B%16-Z*%83%96%D9%A2E%8B%16-Z*%83%96%D9%A2E%8B%16-Z%B4T%86%D9%A2E%8B%16-Z%B4T%06-%B3E%8B%16-Z%B4%AE%A4%F5%25%C0%00%DE%BF%5C'%0F%DA%B8q%00%00%00%00IEND%AEB%60%82") repeat-y !important;
    border-left: 1px solid #BBBBBB !important;
    border-right: 1px solid #000000 !important;
    border-bottom: 1px dashed #BBBBBB !important;
}

.overflowRulerX &gt; .firebugRulerV {
    left: 0 !important;
}

.overflowRulerY &gt; .firebugRulerH {
    top: 0 !important;
}

/* * * * * * * * * * * * * * * * * * * * * * * * * * * * * * * * * * * * * * * * * * * * * * * * */
.fbProxyElement {
    position: fixed !important;
    pointer-events: auto !important;
}
</style><div xmlns="http://www.w3.org/1999/xhtml" class="firebugResetStyles firebugBlockBackgroundColor" style="left: 0px ! important; top: 0px ! important; width: 370px ! important; height: 49px ! important; border-radius: 0px ! important; box-shadow: 0px 0px 2px 2px highlight ! important;"><div class="firebugResetStyles" style="width: 100% ! important; height: 100% ! important; background-color: transparent ! important; opacity: 0.6 ! important;"/></div></svg>