<?xml version="1.0" encoding="UTF-8" standalone="no"?>
<!DOCTYPE svg PUBLIC "-//W3C//DTD SVG 1.1//EN" "http://www.w3.org/Graphics/SVG/1.1/DTD/svg11.dtd">
<svg width="12px" height="12px" viewBox="0 0 86 86" version="1.1" xmlns="http://www.w3.org/2000/svg" xmlns:xlink="http://www.w3.org/1999/xlink" xml:space="preserve" style="fill-rule:evenodd;clip-rule:evenodd;stroke-linejoin:round;stroke-miterlimit:1.41421;">
    <g transform="matrix(3.55343,0,0,3.55343,-520.987,-123.105)">
        <path d="M165.995,37.984C166.919,37.984 167.666,37.237 167.666,36.313C167.666,35.391 166.919,34.644 165.995,34.644C165.073,34.644 164.326,35.391 164.326,36.313C164.326,37.237 165.073,37.984 165.995,37.984Z" style="fill:rgb(86,100,174);fill-rule:nonzero;"/>
    </g>
    <g transform="matrix(3.55343,0,0,3.55343,-524.398,-123.105)">
        <path d="M158.829,51.096L156.282,58.185C156.137,58.585 155.758,58.846 155.342,58.846C155.304,58.846 155.267,58.844 155.23,58.84C154.77,58.789 154.405,58.429 154.348,57.97L152.863,46.045L151.451,50.37C151.317,50.781 150.933,51.059 150.501,51.059L-74.447,51.048C-74.893,50.924 -74.447,49.601 -74.447,49.048C-74.447,48.496 -75,49.048 -74.447,49.048L141.264,49.05L149.775,49.059L152.352,41.169C152.497,40.723 152.939,40.443 153.398,40.484C153.864,40.529 154.237,40.891 154.295,41.355L155.816,53.57L157.2,49.72C157.343,49.324 157.641,49.112 158.063,49.112C158.064,49.112 162.677,49.114 162.677,49.114L164.326,46.695L164.326,43.713L163.593,45.73C163.445,46.136 163.061,46.388 162.653,46.388C162.54,46.388 162.425,46.369 162.311,46.328C161.793,46.139 161.524,45.566 161.714,45.046L162.835,41.962C162.876,41.848 162.938,41.743 163.017,41.65L165.239,39.08C165.243,39.075 165.249,39.074 165.253,39.069C165.269,39.049 165.29,39.034 165.308,39.016C165.316,39.008 165.319,38.998 165.328,38.99C165.342,38.977 165.36,38.974 165.374,38.962C165.422,38.924 165.471,38.887 165.524,38.859C165.554,38.843 165.582,38.832 165.612,38.821C165.616,38.819 165.619,38.817 165.623,38.816C165.647,38.806 165.669,38.792 165.694,38.785C165.749,38.767 165.806,38.76 165.864,38.752C165.894,38.748 165.924,38.741 165.954,38.74C165.969,38.739 165.981,38.734 165.996,38.734C166.002,38.734 166.008,38.734 166.013,38.734C166.019,38.734 166.026,38.737 166.033,38.737C166.056,38.738 166.079,38.746 166.102,38.748C166.168,38.755 166.234,38.761 166.296,38.781C166.309,38.786 166.32,38.794 166.333,38.798C166.346,38.803 166.357,38.81 166.37,38.815C166.401,38.828 166.431,38.841 166.461,38.858C166.513,38.885 166.56,38.916 166.606,38.953C166.62,38.963 166.638,38.965 166.65,38.977C166.663,38.988 166.668,39.004 166.681,39.016C166.695,39.03 166.714,39.041 166.727,39.057C166.731,39.061 166.736,39.062 166.74,39.066L166.746,39.072C166.746,39.073 166.747,39.074 166.747,39.074L171.102,43.93C171.472,44.341 171.437,44.974 171.026,45.342C170.835,45.514 170.597,45.598 170.358,45.598C170.085,45.598 169.811,45.486 169.614,45.266L167.526,42.938L167.529,47.082L168.946,49.967C169.014,50.105 169.049,50.255 169.049,50.409L169.049,53.971C169.049,54.524 168.601,54.971 168.049,54.971C167.496,54.971 167.049,54.524 167.049,53.971L167.049,50.641L165.796,48.09L164.03,50.679C163.844,50.953 163.534,51.116 163.204,51.116C163.203,51.116 163.201,51.116 163.2,51.116L158.829,51.096Z" style="fill:rgb(86,100,174);fill-rule:nonzero;"/>
    </g>
</svg>
