<?xml version="1.0" encoding="UTF-8" standalone="no"?>
<!DOCTYPE svg PUBLIC "-//W3C//DTD SVG 1.1//EN" "http://www.w3.org/Graphics/SVG/1.1/DTD/svg11.dtd">
<svg width="100%" height="100%" viewBox="0 0 128 86" version="1.1" xmlns="http://www.w3.org/2000/svg" xmlns:xlink="http://www.w3.org/1999/xlink" xml:space="preserve" style="fill-rule:evenodd;clip-rule:evenodd;stroke-linejoin:round;stroke-miterlimit:1.41421;">
    <g transform="matrix(3.55343,0,0,3.55343,-520.987,-123.105)">
        <path d="M177.252,37.984C178.176,37.984 178.923,37.237 178.923,36.313C178.923,35.391 178.176,34.644 177.252,34.644C176.33,34.644 175.583,35.391 175.583,36.313C175.583,37.237 176.33,37.984 177.252,37.984Z" style="fill:rgb(86,100,174);fill-rule:nonzero;"/>
    </g>
    <g transform="matrix(-0.852822,-1.04441e-16,1.21878e-14,-99.5206,877.122,6012.22)">
        <path d="M976.397,59.701L985.176,59.895L967.617,59.895L976.397,59.701Z" style="fill:white;"/>
    </g>
    <g transform="matrix(0.852822,3.69779e-32,1.9704e-30,124.29,-800.445,-7386.08)">
        <path d="M976.397,59.701L985.176,59.895L967.617,59.895L976.397,59.701Z" style="fill:rgb(128,128,128);"/>
    </g>
    <g transform="matrix(3.55343,0,0,3.55343,-524.398,-123.105)">
        <path d="M163.05,51.096L160.503,58.185C160.358,58.585 159.979,58.846 159.563,58.846C159.525,58.846 159.488,58.844 159.451,58.84C158.991,58.789 158.626,58.429 158.569,57.97L157.084,46.045L155.672,50.37C155.538,50.781 155.154,51.059 154.722,51.059L-74.447,51.048C-74.893,50.924 -74.447,49.601 -74.447,49.048C-74.447,48.496 -75,49.048 -74.447,49.048L141.264,49.05L153.996,49.059L156.573,41.169C156.718,40.723 157.16,40.443 157.619,40.484C158.085,40.529 158.458,40.891 158.516,41.355L160.037,53.57L161.421,49.72C161.564,49.324 161.862,49.112 162.284,49.112C162.285,49.112 173.934,49.114 173.934,49.114L175.583,46.695L175.583,43.713L174.85,45.73C174.702,46.136 174.318,46.388 173.91,46.388C173.797,46.388 173.682,46.369 173.568,46.328C173.05,46.139 172.781,45.566 172.971,45.046L174.092,41.962C174.133,41.848 174.195,41.743 174.274,41.65L176.496,39.08C176.5,39.075 176.506,39.074 176.51,39.069C176.526,39.049 176.547,39.034 176.565,39.016C176.573,39.008 176.576,38.998 176.585,38.99C176.599,38.977 176.617,38.974 176.631,38.962C176.679,38.924 176.728,38.887 176.781,38.859C176.811,38.843 176.839,38.832 176.869,38.821C176.873,38.819 176.876,38.817 176.88,38.816C176.904,38.806 176.926,38.792 176.951,38.785C177.006,38.767 177.063,38.76 177.121,38.752C177.151,38.748 177.181,38.741 177.211,38.74C177.226,38.739 177.238,38.734 177.253,38.734C177.259,38.734 177.265,38.734 177.27,38.734C177.276,38.734 177.283,38.737 177.29,38.737C177.313,38.738 177.336,38.746 177.359,38.748C177.425,38.755 177.491,38.761 177.553,38.781C177.566,38.786 177.577,38.794 177.59,38.798C177.603,38.803 177.614,38.81 177.627,38.815C177.658,38.828 177.688,38.841 177.718,38.858C177.77,38.885 177.817,38.916 177.863,38.953C177.877,38.963 177.895,38.965 177.907,38.977C177.92,38.988 177.925,39.004 177.938,39.016C177.952,39.03 177.971,39.041 177.984,39.057C177.988,39.061 177.993,39.062 177.997,39.066L178.003,39.072C178.003,39.073 178.004,39.074 178.004,39.074L182.359,43.93C182.729,44.341 182.694,44.974 182.283,45.342C182.092,45.514 181.854,45.598 181.615,45.598C181.342,45.598 181.068,45.486 180.871,45.266L178.783,42.938L178.786,47.082L180.203,49.967C180.271,50.105 180.306,50.255 180.306,50.409L180.306,53.971C180.306,54.524 179.858,54.971 179.306,54.971C178.753,54.971 178.306,54.524 178.306,53.971L178.306,50.641L177.053,48.09L175.287,50.679C175.101,50.953 174.791,51.116 174.461,51.116C174.46,51.116 174.458,51.116 174.457,51.116L163.05,51.096Z" style="fill:rgb(86,100,174);fill-rule:nonzero;"/>
    </g>
</svg>
