<?xml version="1.0" standalone="no"?>
<!DOCTYPE svg PUBLIC "-//W3C//DTD SVG 1.1//EN" "http://www.w3.org/Graphics/SVG/1.1/DTD/svg11.dtd">
<svg width="317px" height="48px" version="1.1" xmlns="http://www.w3.org/2000/svg" xmlns:xlink="http://www.w3.org/1999/xlink" xml:space="preserve" style="fill-rule:evenodd;clip-rule:evenodd;stroke-linejoin:round;stroke-miterlimit:1.41421;">
    <g>
        <g>
            <g>
                <path d="M12.0957,19.0591C11.0389,19.0591 10.2216,18.1804 10.2216,17.1419C10.2216,16.1035 11.0389,15.2248 12.0957,15.2248C13.1588,15.2248 13.9698,16.1035 13.9698,17.1419C13.9698,18.1804 13.1588,19.0591 12.0957,19.0591Z" style="fill:rgb(127,203,40);fill-rule:nonzero;"/>
            </g>
            <g>
                <path d="M19.4201,13.5442L18.8948,16.5797L13.3585,11.4796L12.2801,10.5364L3.56389,16.6104L4.09233,13.5719L12.8515,7.26441L19.4201,13.5442Z" style="fill:rgb(105,94,81);fill-rule:nonzero;"/>
            </g>
            <g>
                <path d="M1.31803,29.594L1.84954,26.5555L10.6026,20.2511L17.1774,26.5279L16.6489,29.5633L11.1095,24.4633L10.0373,23.5201L1.31803,29.594Z" style="fill:rgb(127,203,40);fill-rule:nonzero;"/>
            </g>
            <g>
                <path d="M0.528439,34.095L9.28149,27.7875L15.8563,34.0643L15.3278,37.0997L9.78842,32.0027L8.71618,31.0595L0,37.1305" style="fill:rgb(105,94,81);fill-rule:nonzero;"/>
            </g>
            <g>
                <path d="M53.1481,37.0014L54.9638,24.6998C55.4493,21.4708 56.1129,17.357 56.9547,13.065L56.8195,13.065C55.1851,16.9146 53.3263,21.0284 51.6888,24.3035L45.581,36.516L40.6284,36.516L39.5654,24.4356C39.3011,21.1605 39.0769,17.0467 38.9017,13.065L38.8126,13.065C37.9739,17.0006 37.086,21.4708 36.3364,24.6998L33.3716,37.0014L27.5311,37.0014L35.0091,7.17838L43.5471,7.17838L44.478,18.506C44.6531,21.2926 44.9634,24.6998 45.0064,28.021L45.1846,28.021C46.3337,24.6998 47.9282,21.2035 49.2094,18.506L54.7426,7.17838L63.3697,7.17838L59.3419,37.0014L53.1481,37.0014Z" style="fill:rgb(105,94,81);fill-rule:nonzero;"/>
            </g>
            <g>
                <path d="M76.464,7.17838L70.7986,37.0014L64.4266,37.0014L70.092,7.17838L76.464,7.17838Z" style="fill:rgb(105,94,81);fill-rule:nonzero;"/>
            </g>
            <g>
                <path d="M81.0632,37.0014L79.9111,7.17838L86.3292,7.17838L86.3722,20.4539C86.3292,24.0362 86.2831,27.4434 86.194,30.0979L86.2831,30.0979C87.3,27.1792 88.4061,24.1683 89.7794,20.543L95.1314,7.17838L102.124,7.17838L102.035,20.4969C101.992,24.0792 101.903,27.044 101.771,29.9658L101.857,29.9658C102.877,26.8689 103.983,23.6399 105.132,20.4539L110.309,7.17838L116.991,7.17838L103.848,37.0014L96.9041,37.0014L96.6798,24.7459C96.6798,21.2496 96.7689,18.2418 96.9471,14.8776L96.858,14.8776C95.752,18.0636 94.7351,21.2496 93.2296,24.921L88.1419,37.0014L81.0632,37.0014Z" style="fill:rgb(105,94,81);fill-rule:nonzero;"/>
            </g>
            <g>
                <path d="M126.057,14.257C123.667,16.6043 122.34,21.2496 122.34,24.8319C122.34,29.038 124.242,32.1779 128.58,32.1779C130.439,32.1779 132.208,31.3361 133.578,30.0119C135.923,27.6646 137.207,22.752 137.207,19.3018C137.207,15.5873 135.88,12.0019 131.188,12.0019C129.197,12.0019 127.428,12.8437 126.057,14.257ZM143.975,19.1266C143.975,24.5677 142.073,29.8337 138.666,33.1948C135.88,35.8954 132.119,37.4868 127.649,37.4868C119.907,37.4868 115.572,32.0027 115.572,25.0532C115.572,19.6582 117.562,14.3031 121.056,10.9389C123.845,8.28442 127.649,6.69295 131.941,6.69295C139.818,6.69295 143.975,12.0019 143.975,19.1266Z" style="fill:rgb(105,94,81);fill-rule:nonzero;"/>
            </g>
            <g>
                <path d="M163.712,17.9254L164.354,13.5688C164.526,12.4259 164.759,10.9696 165.057,9.44883L165.011,9.44883C164.431,10.8129 163.773,12.2692 163.193,13.4275L161.03,17.7533L159.278,17.7533L158.901,13.4766C158.808,12.3153 158.728,10.859 158.664,9.44883L158.633,9.44883C158.335,10.8437 158.025,12.4259 157.758,13.5688L156.707,17.9254L154.639,17.9254L157.288,7.36579L160.311,7.36579L160.639,11.3752C160.701,12.3645 160.811,13.5688 160.827,14.7455L160.891,14.7455C161.297,13.5688 161.862,12.3307 162.317,11.3752L164.274,7.36579L167.331,7.36579L165.905,17.9254L163.712,17.9254Z" style="fill:rgb(105,94,81);fill-rule:nonzero;"/>
            </g>
            <g>
                <path d="M170.262,14.8838C170.262,15.7778 170.698,16.3738 171.482,16.3738C172.72,16.3738 173.408,14.5735 173.408,13.2554C173.408,12.5519 173.113,11.7992 172.204,11.7992C170.904,11.7992 170.244,13.6948 170.262,14.8838ZM175.743,13.2401C175.743,16.0451 173.832,18.0974 171.168,18.0974C169.227,18.0974 167.927,16.8285 167.927,14.9329C167.927,12.2692 169.777,10.0909 172.502,10.0909C174.554,10.0909 175.743,11.5011 175.743,13.2401Z" style="fill:rgb(105,94,81);fill-rule:nonzero;"/>
            </g>
            <g>
                <path d="M179.193,14.6964C179.159,14.9483 179.098,15.2156 179.113,15.5443C179.129,16.0912 179.457,16.3892 179.974,16.3892C181.276,16.3892 182.216,14.5735 182.216,13.2247C182.216,12.4874 181.903,11.9098 181.215,11.9098C180.398,11.9098 179.599,12.7393 179.335,14.0696L179.193,14.6964ZM180.772,6.80049L179.866,11.1724L179.897,11.1724C180.459,10.4996 181.322,10.0909 182.262,10.0909C183.86,10.0909 184.582,11.3905 184.582,12.7546C184.582,15.2463 182.954,18.0974 179.504,18.0974C177.688,18.0974 176.778,17.314 176.778,15.9499C176.778,15.4798 176.855,15.0097 176.95,14.555L178.502,6.80049L180.772,6.80049Z" style="fill:rgb(105,94,81);fill-rule:nonzero;"/>
            </g>
            <g>
                <path d="M186.963,8.21068C186.978,7.4426 187.574,6.92645 188.266,6.92645C188.92,6.92645 189.39,7.36579 189.39,8.03863C189.39,8.83743 188.782,9.3075 188.06,9.3075C187.433,9.3075 186.963,8.88352 186.963,8.21068ZM185.193,17.9254L186.65,10.263L188.908,10.263L187.449,17.9254L185.193,17.9254Z" style="fill:rgb(105,94,81);fill-rule:nonzero;"/>
            </g>
            <g>
                <path d="M189.344,17.9254L191.476,6.80049L193.731,6.80049L191.602,17.9254L189.344,17.9254Z" style="fill:rgb(105,94,81);fill-rule:nonzero;"/>
            </g>
            <g>
                <path d="M195.268,8.21068C195.283,7.4426 195.879,6.92645 196.57,6.92645C197.225,6.92645 197.695,7.36579 197.695,8.03863C197.695,8.83743 197.086,9.3075 196.364,9.3075C195.738,9.3075 195.268,8.88352 195.268,8.21068ZM193.498,17.9254L194.954,10.263L197.209,10.263L195.753,17.9254L193.498,17.9254Z" style="fill:rgb(105,94,81);fill-rule:nonzero;"/>
            </g>
            <g>
                <path d="M201.99,8.11851L201.581,10.263L203.213,10.263L202.884,11.9712L201.252,11.9712L200.736,14.5735C200.672,14.8838 200.61,15.277 200.61,15.5443C200.61,15.9191 200.767,16.1864 201.252,16.1864C201.455,16.1864 201.676,16.1864 201.879,16.1557L201.612,17.9254C201.332,18.036 200.767,18.0974 200.282,18.0974C198.933,18.0974 198.291,17.4092 198.291,16.4537C198.291,16.0297 198.34,15.6058 198.447,15.0251L199.043,11.9712L198.073,11.9712L198.386,10.263L199.372,10.263L199.686,8.65003L201.99,8.11851Z" style="fill:rgb(105,94,81);fill-rule:nonzero;"/>
            </g>
            <g>
                <path d="M208.838,8.21068C208.838,7.50712 209.37,7.03706 210.027,7.03706C210.654,7.03706 211.047,7.47332 211.047,8.06936C211.047,8.79135 210.531,9.24605 209.886,9.24605C209.323,9.24605 208.838,8.8528 208.838,8.21068ZM205.624,8.21068C205.624,7.50712 206.156,7.03706 206.801,7.03706C207.428,7.03706 207.833,7.47332 207.833,8.06936C207.833,8.79135 207.302,9.24605 206.675,9.24605C206.094,9.24605 205.624,8.8528 205.624,8.21068ZM208.727,11.8606C208.555,11.8299 208.334,11.7992 208.116,11.7992C206.66,11.7992 205.594,13.5842 205.594,15.0097C205.594,15.7624 205.892,16.2786 206.518,16.2786C207.191,16.2786 208.021,15.5136 208.368,13.6333L208.727,11.8606ZM208.07,17.9254C208.085,17.4707 208.131,16.9545 208.177,16.4046L208.131,16.4046C207.428,17.6734 206.457,18.0974 205.563,18.0974C204.183,18.0974 203.243,17.0313 203.243,15.4337C203.243,12.8499 204.952,10.0909 208.727,10.0909C209.637,10.0909 210.623,10.263 211.265,10.4658L210.451,14.4782C210.264,15.4644 210.122,16.9699 210.153,17.9254L208.07,17.9254Z" style="fill:rgb(105,94,81);fill-rule:nonzero;"/>
            </g>
            <g>
                <path d="M216.123,8.11851L215.714,10.263L217.345,10.263L217.017,11.9712L215.385,11.9712L214.869,14.5735C214.808,14.8838 214.743,15.277 214.743,15.5443C214.743,15.9191 214.9,16.1864 215.385,16.1864C215.591,16.1864 215.809,16.1864 216.012,16.1557L215.748,17.9254C215.465,18.036 214.9,18.0974 214.414,18.0974C213.069,18.0974 212.423,17.4092 212.423,16.4537C212.423,16.0297 212.473,15.6058 212.58,15.0251L213.179,11.9712L212.205,11.9712L212.519,10.263L213.508,10.263L213.821,8.65003L216.123,8.11851Z" style="fill:rgb(105,94,81);fill-rule:nonzero;"/>
            </g>
            <g>
                <path d="M217.517,15.9038C217.957,16.1219 218.786,16.4353 219.524,16.4353C220.166,16.4353 220.494,16.1219 220.494,15.7471C220.494,15.3723 220.246,15.105 219.539,14.7609C218.645,14.3215 217.908,13.6794 217.908,12.7239C217.908,11.1417 219.302,10.0909 221.278,10.0909C222.172,10.0909 222.875,10.263 223.253,10.4842L222.719,12.0818C222.39,11.9251 221.859,11.7377 221.183,11.7377C220.59,11.7377 220.181,12.0019 220.181,12.4105C220.181,12.7239 220.494,12.9881 221.121,13.2862C221.951,13.7101 222.829,14.3215 222.829,15.3876C222.829,17.1419 221.339,18.0821 219.321,18.0821C218.347,18.0821 217.425,17.8301 216.97,17.486L217.517,15.9038Z" style="fill:rgb(105,94,81);fill-rule:nonzero;"/>
            </g>
            <g>
                <path d="M223.754,17.9254L224.71,12.7546C224.882,11.7838 225.008,10.9389 225.1,10.263L227.045,10.263L226.903,11.5011L226.934,11.5011C227.622,10.5149 228.562,10.0909 229.549,10.0909C230.771,10.0909 231.306,10.859 231.367,11.5319C232.059,10.5456 233.014,10.0909 234,10.0909C235.189,10.0909 235.881,10.8437 235.881,12.1433C235.881,12.472 235.816,13.068 235.739,13.4582L234.91,17.9254L232.731,17.9254L233.5,13.7409C233.561,13.4275 233.61,13.0987 233.61,12.8007C233.61,12.2692 233.374,11.8944 232.842,11.8944C232.089,11.8944 231.352,12.9113 231.054,14.4475L230.412,17.9254L228.234,17.9254L229.017,13.7101C229.078,13.3968 229.128,13.0987 229.128,12.8345C229.128,12.3153 228.956,11.8944 228.406,11.8944C227.641,11.8944 226.842,12.9728 226.559,14.4782L225.932,17.9254L223.754,17.9254Z" style="fill:rgb(105,94,81);fill-rule:nonzero;"/>
            </g>
            <g>
                <path d="M242.446,11.8606C242.274,11.8299 242.056,11.7992 241.835,11.7992C240.379,11.7992 239.312,13.5842 239.312,15.0097C239.312,15.7624 239.61,16.2786 240.237,16.2786C240.91,16.2786 241.743,15.5136 242.087,13.6333L242.446,11.8606ZM241.789,17.9254C241.804,17.4707 241.85,16.9545 241.899,16.4046L241.85,16.4046C241.144,17.6734 240.176,18.0974 239.282,18.0974C237.902,18.0974 236.962,17.0313 236.962,15.4337C236.962,12.8499 238.67,10.0909 242.446,10.0909C243.356,10.0909 244.342,10.263 244.984,10.4658L244.17,14.4782C243.982,15.4644 243.841,16.9699 243.872,17.9254L241.789,17.9254Z" style="fill:rgb(105,94,81);fill-rule:nonzero;"/>
            </g>
            <g>
                <path d="M245.534,17.9254L246.505,12.7546C246.692,11.7838 246.818,10.9389 246.913,10.263L248.916,10.263L248.76,11.5319L248.794,11.5319C249.512,10.5303 250.468,10.0909 251.488,10.0909C252.738,10.0909 253.445,10.859 253.445,12.174C253.445,12.5212 253.384,13.0987 253.319,13.4766L252.474,17.9254L250.219,17.9254L251.018,13.6794C251.064,13.4121 251.095,13.0987 251.095,12.8161C251.095,12.2846 250.907,11.9098 250.342,11.9098C249.608,11.9098 248.744,12.8345 248.434,14.5243L247.789,17.9254L245.534,17.9254Z" style="fill:rgb(105,94,81);fill-rule:nonzero;"/>
            </g>
            <g>
                <path d="M260.026,11.8606C259.854,11.8299 259.636,11.7992 259.415,11.7992C257.958,11.7992 256.892,13.5842 256.892,15.0097C256.892,15.7624 257.19,16.2786 257.817,16.2786C258.49,16.2786 259.322,15.5136 259.667,13.6333L260.026,11.8606ZM259.369,17.9254C259.384,17.4707 259.43,16.9545 259.479,16.4046L259.43,16.4046C258.726,17.6734 257.756,18.0974 256.862,18.0974C255.482,18.0974 254.542,17.0313 254.542,15.4337C254.542,12.8499 256.25,10.0909 260.026,10.0909C260.935,10.0909 261.922,10.263 262.564,10.4658L261.75,14.4782C261.562,15.4644 261.421,16.9699 261.452,17.9254L259.369,17.9254Z" style="fill:rgb(105,94,81);fill-rule:nonzero;"/>
            </g>
            <g>
                <path d="M268.801,11.9558C268.629,11.876 268.3,11.8145 267.986,11.8145C266.622,11.8145 265.651,13.3353 265.651,14.7916C265.651,15.5597 265.996,16.1219 266.687,16.1219C267.421,16.1219 268.174,15.3077 268.407,14.0082L268.801,11.9558ZM263.538,18.9915C263.959,19.2403 264.899,19.4124 265.541,19.4124C266.671,19.4124 267.516,18.9116 267.83,17.3754L267.956,16.7333L267.922,16.7333C267.329,17.5014 266.638,17.8639 265.731,17.8639C264.211,17.8639 263.286,16.6258 263.27,15.1357C263.27,12.598 265.071,10.0909 268.407,10.0909C269.489,10.0909 270.444,10.2784 271.246,10.6225L270.085,16.9391C269.817,18.3493 269.397,19.6029 268.472,20.3371C267.642,20.9946 266.53,21.2005 265.51,21.2005C264.49,21.2005 263.538,21.01 263.018,20.715L263.538,18.9915Z" style="fill:rgb(105,94,81);fill-rule:nonzero;"/>
            </g>
            <g>
                <path d="M276.196,11.7377C275.148,11.7377 274.552,12.598 274.395,13.32C276.15,13.3353 277.025,13.0834 277.025,12.3952C277.025,12.0019 276.712,11.7377 276.196,11.7377ZM278.186,17.486C277.292,17.9407 276.18,18.0821 275.335,18.0821C273.142,18.0821 272.014,16.8439 272.014,14.853C272.014,12.5212 273.704,10.0909 276.478,10.0909C278.03,10.0909 279.142,10.9543 279.142,12.3798C279.142,14.3369 277.246,15.0405 274.174,14.9636C274.174,15.1818 274.254,15.529 274.411,15.7471C274.709,16.1373 275.225,16.3431 275.882,16.3431C276.712,16.3431 277.418,16.1557 278.03,15.8577L278.186,17.486Z" style="fill:rgb(105,94,81);fill-rule:nonzero;"/>
            </g>
            <g>
                <path d="M279.627,17.9254L280.583,12.7546C280.755,11.7838 280.884,10.9389 280.976,10.263L282.918,10.263L282.777,11.5011L282.807,11.5011C283.499,10.5149 284.439,10.0909 285.425,10.0909C286.648,10.0909 287.179,10.859 287.244,11.5319C287.932,10.5456 288.887,10.0909 289.874,10.0909C291.066,10.0909 291.754,10.8437 291.754,12.1433C291.754,12.472 291.692,13.068 291.613,13.4582L290.783,17.9254L288.605,17.9254L289.373,13.7409C289.437,13.4275 289.483,13.0987 289.483,12.8007C289.483,12.2692 289.247,11.8944 288.715,11.8944C287.963,11.8944 287.228,12.9113 286.93,14.4475L286.285,17.9254L284.11,17.9254L284.893,13.7101C284.955,13.3968 285.001,13.0987 285.001,12.8345C285.001,12.3153 284.832,11.8944 284.282,11.8944C283.514,11.8944 282.715,12.9728 282.432,14.4782L281.806,17.9254L279.627,17.9254Z" style="fill:rgb(105,94,81);fill-rule:nonzero;"/>
            </g>
            <g>
                <path d="M297.069,11.7377C296.018,11.7377 295.422,12.598 295.266,13.32C297.02,13.3353 297.899,13.0834 297.899,12.3952C297.899,12.0019 297.585,11.7377 297.069,11.7377ZM299.057,17.486C298.166,17.9407 297.054,18.0821 296.206,18.0821C294.012,18.0821 292.884,16.8439 292.884,14.853C292.884,12.5212 294.577,10.0909 297.349,10.0909C298.9,10.0909 300.012,10.9543 300.012,12.3798C300.012,14.3369 298.117,15.0405 295.047,14.9636C295.047,15.1818 295.124,15.529 295.281,15.7471C295.579,16.1373 296.095,16.3431 296.753,16.3431C297.585,16.3431 298.289,16.1557 298.9,15.8577L299.057,17.486Z" style="fill:rgb(105,94,81);fill-rule:nonzero;"/>
            </g>
            <g>
                <path d="M300.501,17.9254L301.472,12.7546C301.659,11.7838 301.785,10.9389 301.877,10.263L303.883,10.263L303.727,11.5319L303.757,11.5319C304.479,10.5303 305.435,10.0909 306.452,10.0909C307.705,10.0909 308.412,10.859 308.412,12.174C308.412,12.5212 308.347,13.0987 308.286,13.4766L307.441,17.9254L305.183,17.9254L305.982,13.6794C306.031,13.4121 306.062,13.0987 306.062,12.8161C306.062,12.2846 305.871,11.9098 305.309,11.9098C304.575,11.9098 303.711,12.8345 303.398,14.5243L302.756,17.9254L300.501,17.9254Z" style="fill:rgb(105,94,81);fill-rule:nonzero;"/>
            </g>
            <g>
                <path d="M313.66,8.11851L313.254,10.263L314.882,10.263L314.554,11.9712L312.925,11.9712L312.409,14.5735C312.345,14.8838 312.28,15.277 312.28,15.5443C312.28,15.9191 312.437,16.1864 312.925,16.1864C313.128,16.1864 313.346,16.1864 313.552,16.1557L313.285,17.9254C313.002,18.036 312.437,18.0974 311.954,18.0974C310.606,18.0974 309.964,17.4092 309.964,16.4537C309.964,16.0297 310.01,15.6058 310.12,15.0251L310.716,11.9712L309.745,11.9712L310.059,10.263L311.045,10.263L311.358,8.65003L313.66,8.11851Z" style="fill:rgb(105,94,81);fill-rule:nonzero;"/>
            </g>
            <g>
                <path d="M156.566,27.0133C156.581,26.2452 157.177,25.7291 157.868,25.7291C158.526,25.7291 158.993,26.1684 158.993,26.8412C158.993,27.64 158.384,28.1101 157.662,28.1101C157.036,28.1101 156.566,27.6861 156.566,27.0133ZM154.796,36.728L156.252,29.0656L158.51,29.0656L157.051,36.728L154.796,36.728Z" style="fill:rgb(105,94,81);fill-rule:nonzero;"/>
            </g>
            <g>
                <path d="M158.947,36.728L159.921,31.5573C160.108,30.5864 160.234,29.7415 160.326,29.0656L162.332,29.0656L162.176,30.3345L162.206,30.3345C162.928,29.3329 163.884,28.8936 164.901,28.8936C166.154,28.8936 166.861,29.6616 166.861,30.9766C166.861,31.3238 166.796,31.9014 166.735,32.2793L165.887,36.728L163.632,36.728L164.431,32.482C164.477,32.2147 164.511,31.9014 164.511,31.6187C164.511,31.0872 164.32,30.7093 163.758,30.7093C163.02,30.7093 162.16,31.6371 161.847,33.3269L161.205,36.728L158.947,36.728Z" style="fill:rgb(105,94,81);fill-rule:nonzero;"/>
            </g>
            <g>
                <path d="M172.296,36.728L171.89,26.1684L174.161,26.1684L174.176,30.866C174.161,32.1379 174.145,33.3423 174.115,34.2824L174.145,34.2824C174.505,33.2501 174.898,32.184 175.384,30.8998L177.279,26.1684L179.755,26.1684L179.725,30.8844C179.709,32.1533 179.676,33.201 179.629,34.2363L179.66,34.2363C180.023,33.1395 180.413,31.9966 180.822,30.866L182.653,26.1684L185.018,26.1684L180.367,36.728L177.906,36.728L177.829,32.3868C177.829,31.1486 177.86,30.0856 177.921,28.8936L177.891,28.8936C177.5,30.0211 177.138,31.1486 176.606,32.4482L174.806,36.728L172.296,36.728Z" style="fill:rgb(105,94,81);fill-rule:nonzero;"/>
            </g>
            <g>
                <path d="M186.195,33.6895C186.195,34.5804 186.634,35.1765 187.418,35.1765C188.656,35.1765 189.344,33.3761 189.344,32.058C189.344,31.3545 189.046,30.6018 188.14,30.6018C186.837,30.6018 186.18,32.4974 186.195,33.6895ZM191.679,32.0427C191.679,34.8477 189.768,36.9 187.104,36.9C185.16,36.9 183.86,35.6312 183.86,33.7355C183.86,31.0718 185.71,28.8936 188.435,28.8936C190.487,28.8936 191.679,30.3038 191.679,32.0427Z" style="fill:rgb(105,94,81);fill-rule:nonzero;"/>
            </g>
            <g>
                <path d="M192.355,36.728L194.453,25.6031L196.708,25.6031L195.864,30.0365L195.894,30.0549C196.521,29.3483 197.32,28.8936 198.34,28.8936C199.529,28.8936 200.266,29.6463 200.266,30.9612C200.266,31.3238 200.202,31.9014 200.125,32.3407L199.295,36.728L197.037,36.728L197.821,32.5281C197.885,32.2301 197.931,31.9014 197.931,31.5726C197.931,31.0718 197.713,30.7093 197.148,30.7093C196.364,30.7093 195.566,31.6679 195.268,33.2194L194.61,36.728L192.355,36.728Z" style="fill:rgb(105,94,81);fill-rule:nonzero;"/>
            </g>
            <g>
                <path d="M201.176,36.728L202.147,31.5573C202.334,30.5864 202.46,29.7415 202.552,29.0656L204.558,29.0656L204.402,30.3345L204.432,30.3345C205.154,29.3329 206.11,28.8936 207.13,28.8936C208.38,28.8936 209.087,29.6616 209.087,30.9766C209.087,31.3238 209.025,31.9014 208.961,32.2793L208.116,36.728L205.861,36.728L206.66,32.482C206.706,32.2147 206.737,31.9014 206.737,31.6187C206.737,31.0872 206.549,30.7093 205.984,30.7093C205.25,30.7093 204.386,31.6371 204.073,33.3269L203.431,36.728L201.176,36.728Z" style="fill:rgb(105,94,81);fill-rule:nonzero;"/>
            </g>
            <g>
                <path d="M210.279,34.7064C210.718,34.9245 211.548,35.2379 212.285,35.2379C212.927,35.2379 213.256,34.9245 213.256,34.5497C213.256,34.1749 213.004,33.9076 212.297,33.5635C211.406,33.1241 210.669,32.482 210.669,31.5265C210.669,29.9443 212.064,28.8936 214.036,28.8936C214.93,28.8936 215.637,29.0656 216.012,29.2837L215.48,30.8844C215.152,30.7277 214.617,30.5403 213.944,30.5403C213.348,30.5403 212.943,30.8045 212.943,31.2132C212.943,31.5265 213.256,31.7938 213.88,32.0888C214.712,32.5128 215.591,33.1241 215.591,34.1872C215.591,35.9445 214.101,36.8847 212.079,36.8847C211.108,36.8847 210.184,36.6327 209.729,36.2886L210.279,34.7064Z" style="fill:rgb(105,94,81);fill-rule:nonzero;"/>
            </g>
            <g>
                <path d="M218.285,27.0133C218.301,26.2452 218.897,25.7291 219.585,25.7291C220.242,25.7291 220.713,26.1684 220.713,26.8412C220.713,27.64 220.101,28.1101 219.382,28.1101C218.755,28.1101 218.285,27.6861 218.285,27.0133ZM216.516,36.728L217.972,29.0656L220.227,29.0656L218.771,36.728L216.516,36.728Z" style="fill:rgb(105,94,81);fill-rule:nonzero;"/>
            </g>
            <g>
                <path d="M225.084,30.5403C224.034,30.5403 223.438,31.4006 223.281,32.1226C225.038,32.1379 225.917,31.886 225.917,31.1978C225.917,30.8045 225.601,30.5403 225.084,30.5403ZM227.075,36.2886C226.181,36.7433 225.069,36.8847 224.224,36.8847C222.028,36.8847 220.903,35.6465 220.903,33.6557C220.903,31.3238 222.593,28.8936 225.367,28.8936C226.919,28.8936 228.031,29.7538 228.031,31.1794C228.031,33.1395 226.135,33.8461 223.063,33.7663C223.063,33.9844 223.143,34.3316 223.299,34.5497C223.594,34.9399 224.114,35.1457 224.771,35.1457C225.601,35.1457 226.307,34.9583 226.919,34.6603L227.075,36.2886Z" style="fill:rgb(105,94,81);fill-rule:nonzero;"/>
            </g>
            <g>
                <path d="M234.329,30.866C234.157,30.7277 233.813,30.6018 233.435,30.6018C232.089,30.6018 231.134,32.1687 231.134,33.6403C231.134,34.5651 231.539,35.0812 232.197,35.0812C232.842,35.0812 233.641,34.393 233.936,32.9367L234.329,30.866ZM237.57,25.6031L236.022,33.7509C235.835,34.7371 235.693,35.8186 235.659,36.728L233.595,36.728L233.702,35.4898L233.672,35.4898C232.996,36.5068 232.059,36.9 231.165,36.9C229.862,36.9 228.784,35.8647 228.784,34.0028C228.784,31.3391 230.71,28.8936 233.607,28.8936C233.92,28.8936 234.329,28.9427 234.658,29.0656L235.315,25.6031L237.57,25.6031Z" style="fill:rgb(105,94,81);fill-rule:nonzero;"/>
            </g>
            <g>
                <path d="M237.355,36.728L239.484,25.6031L241.743,25.6031L239.61,36.728L237.355,36.728Z" style="fill:rgb(105,94,81);fill-rule:nonzero;"/>
            </g>
            <g>
                <path d="M249.826,29.0656L248.84,34.2363C248.649,35.2072 248.542,36.0367 248.431,36.728L246.44,36.728L246.582,35.4745L246.551,35.4745C245.767,36.476 244.827,36.9 243.902,36.9C242.68,36.9 241.945,36.2118 241.945,34.7525C241.945,34.3316 241.991,33.8769 242.102,33.3423L242.901,29.0656L245.156,29.0656L244.388,33.1702C244.326,33.5143 244.28,33.8922 244.28,34.1749C244.28,34.6757 244.468,35.0659 245.045,35.0659C245.817,35.0659 246.597,34.1411 246.895,32.6049L247.568,29.0656L249.826,29.0656Z" style="fill:rgb(105,94,81);fill-rule:nonzero;"/>
            </g>
            <g>
                <path d="M250.281,36.728L251.251,31.5573C251.439,30.5864 251.565,29.7415 251.66,29.0656L253.663,29.0656L253.507,30.3345L253.54,30.3345C254.259,29.3329 255.215,28.8936 256.235,28.8936C257.488,28.8936 258.192,29.6616 258.192,30.9766C258.192,31.3238 258.13,31.9014 258.066,32.2793L257.221,36.728L254.966,36.728L255.765,32.482C255.811,32.2147 255.841,31.9014 255.841,31.6187C255.841,31.0872 255.654,30.7093 255.089,30.7093C254.354,30.7093 253.494,31.6371 253.181,33.3269L252.536,36.728L250.281,36.728Z" style="fill:rgb(105,94,81);fill-rule:nonzero;"/>
            </g>
            <g>
                <path d="M264.868,30.7585C264.696,30.6816 264.367,30.6171 264.054,30.6171C262.69,30.6171 261.719,32.1379 261.719,33.5942C261.719,34.3623 262.063,34.9245 262.754,34.9245C263.489,34.9245 264.241,34.1104 264.475,32.8108L264.868,30.7585ZM259.605,37.7941C260.026,38.0429 260.966,38.215 261.608,38.215C262.736,38.215 263.584,37.7142 263.897,36.1811L264.023,35.5359L263.989,35.5359C263.393,36.304 262.705,36.6635 261.799,36.6635C260.278,36.6635 259.353,35.4284 259.338,33.9383C259.338,31.4006 261.138,28.8936 264.475,28.8936C265.556,28.8936 266.512,29.081 267.31,29.4251L266.152,35.7418C265.885,37.1489 265.461,38.4024 264.539,39.1397C263.707,39.7972 262.598,40 261.578,40C260.557,40 259.605,39.8157 259.086,39.5176L259.605,37.7941Z" style="fill:rgb(105,94,81);fill-rule:nonzero;"/>
            </g>
            <g>
                <path d="M272.263,30.5403C271.212,30.5403 270.616,31.4006 270.463,32.1226C272.217,32.1379 273.093,31.886 273.093,31.1978C273.093,30.8045 272.779,30.5403 272.263,30.5403ZM274.251,36.2886C273.36,36.7433 272.248,36.8847 271.4,36.8847C269.209,36.8847 268.079,35.6465 268.079,33.6557C268.079,31.3238 269.771,28.8936 272.546,28.8936C274.094,28.8936 275.209,29.7538 275.209,31.1794C275.209,33.1395 273.314,33.8461 270.241,33.7663C270.241,33.9844 270.321,34.3316 270.478,34.5497C270.776,34.9399 271.292,35.1457 271.95,35.1457C272.779,35.1457 273.486,34.9583 274.094,34.6603L274.251,36.2886Z" style="fill:rgb(105,94,81);fill-rule:nonzero;"/>
            </g>
            <g>
                <path d="M275.695,36.728L276.666,31.5573C276.853,30.5864 276.979,29.7415 277.074,29.0656L279.081,29.0656L278.924,30.3345L278.955,30.3345C279.674,29.3329 280.629,28.8936 281.649,28.8936C282.903,28.8936 283.606,29.6616 283.606,30.9766C283.606,31.3238 283.545,31.9014 283.483,32.2793L282.635,36.728L280.38,36.728L281.179,32.482C281.225,32.2147 281.256,31.9014 281.256,31.6187C281.256,31.0872 281.068,30.7093 280.503,30.7093C279.769,30.7093 278.905,31.6371 278.592,33.3269L277.953,36.728L275.695,36.728Z" style="fill:rgb(105,94,81);fill-rule:nonzero;"/>
            </g>
        </g>
    </g>
</svg>
